<?xml version="1.0" standalone="no"?>
<!DOCTYPE svg PUBLIC "-//W3C//DTD SVG 20010904//EN"
 "http://www.w3.org/TR/2001/REC-SVG-20010904/DTD/svg10.dtd">
<svg version="1.0" xmlns="http://www.w3.org/2000/svg"
 width="920.000000pt" height="488.000000pt" viewBox="0 0 920.000000 488.000000"
 preserveAspectRatio="xMidYMid meet">

<g transform="translate(0.000000,488.000000) scale(0.100000,-0.100000)"
fill="#000000" stroke="none">
<path d="M4510 4280 c-199 -12 -437 -37 -520 -55 -59 -13 -60 -14 -15 -9 28 3
97 11 155 19 184 25 572 38 980 32 272 -4 380 -3 367 4 -24 14 -760 21 -967 9z"/>
<path d="M6498 4265 c-150 -38 -220 -107 -323 -319 -41 -83 -88 -187 -105
-231 -18 -44 -49 -116 -69 -160 -21 -44 -42 -91 -46 -105 l-9 -25 -8 25 c-6
20 -7 18 -3 -10 3 -19 1 -40 -3 -46 -4 -6 -38 -15 -77 -20 l-70 -9 71 -3 72
-3 -16 -50 c-11 -32 -20 -48 -29 -45 -7 3 -13 1 -13 -4 0 -6 7 -10 15 -10 9 0
20 -12 25 -26 13 -33 13 -34 -6 -34 -12 0 -15 -6 -10 -22 3 -13 6 -36 6 -53
l1 -30 16 30 17 30 16 -70 c10 -38 20 -86 24 -106 l6 -35 -95 -19 c-54 -10
-101 -25 -109 -34 -48 -56 -46 -215 3 -205 9 1 47 8 84 15 87 15 81 22 -8 10
-101 -15 -102 -1 -1 20 48 10 94 23 102 30 20 17 24 9 31 -53 4 -42 2 -55 -8
-55 -8 0 -22 -4 -31 -8 -10 -4 -18 -3 -18 3 0 5 -11 10 -25 10 -14 0 -25 -6
-25 -13 0 -7 -8 -15 -19 -18 -12 -3 -20 -18 -25 -48 l-7 -43 -21 34 -20 34
-52 -54 c-29 -30 -71 -73 -93 -94 l-42 -39 -68 70 c-63 65 -173 137 -173 113
0 -5 -7 -6 -17 -3 -11 4 -14 3 -9 -5 4 -7 1 -12 -8 -12 -20 0 -30 -18 -18 -33
8 -9 -13 -12 -88 -12 -91 0 -100 2 -103 20 -4 16 -5 15 -6 -5 -2 -21 -15 -31
-77 -61 -41 -19 -77 -33 -80 -30 -11 11 -83 8 -77 -3 4 -6 -15 7 -42 30 -90
73 -149 112 -248 162 -129 67 -188 76 -432 70 -104 -3 -174 -3 -155 -1 75 7
98 14 104 31 3 9 9 22 12 29 4 9 -3 10 -28 3 -44 -11 -108 -20 -108 -15 0 10
63 36 95 40 37 5 168 53 145 54 -8 0 -33 -6 -55 -14 -73 -26 -46 -8 57 38 112
50 263 103 372 132 38 11 64 21 58 23 -30 10 -367 -106 -555 -192 -32 -14 -56
-22 -52 -16 8 13 5 13 -34 -1 -17 -6 -31 -15 -31 -20 0 -6 8 -5 19 1 45 23 32
7 -16 -21 -49 -28 -59 -30 -222 -40 -94 -5 -263 -20 -374 -33 -200 -23 -203
-23 -302 -5 -77 14 -88 18 -49 17 27 -1 56 2 64 7 8 5 11 4 6 -3 -4 -6 5 -5
21 3 17 9 31 11 38 5 7 -6 16 -5 23 2 7 7 12 8 12 2 0 -5 5 -2 10 6 7 11 10
11 10 2 0 -7 5 -10 11 -6 6 4 25 8 43 11 39 5 71 11 71 13 0 1 17 6 48 13 6 1
18 7 26 11 10 7 12 6 6 -4 -6 -9 -4 -11 5 -5 7 4 29 9 49 9 20 1 51 9 70 19
19 9 47 17 63 17 17 0 27 4 23 10 -4 6 -12 7 -18 3 -7 -4 -5 2 3 12 8 10 10
16 3 12 -6 -4 -14 -3 -18 3 -4 6 -10 8 -15 5 -5 -3 -11 -1 -15 5 -6 9 16 15
40 10 5 -1 19 -2 30 -3 11 0 26 -5 34 -11 11 -8 13 -8 7 2 -7 12 18 13 39 1 6
-4 18 -5 28 -4 9 2 17 0 17 -5 0 -4 11 -6 25 -5 14 2 28 -2 32 -8 4 -7 9 -3
14 9 7 17 8 17 8 1 1 -10 6 -15 11 -12 6 4 8 11 5 16 -4 5 -2 9 4 9 5 0 8 12
5 28 -3 17 -1 22 4 14 5 -7 8 -29 7 -48 -3 -34 -2 -35 16 -18 10 9 19 13 19 8
0 -5 16 -10 35 -10 20 -1 34 0 32 3 -6 5 -47 15 -70 16 -14 1 -17 7 -14 24 2
12 0 20 -4 17 -12 -7 -11 23 1 46 7 13 7 21 -2 26 -6 4 -8 3 -5 -3 4 -6 0 -19
-9 -29 -15 -18 -15 -18 -6 1 6 11 12 25 14 30 1 6 9 9 15 9 7 -1 11 2 8 6 -3
5 1 11 7 14 82 35 -275 -77 -444 -140 -131 -48 -245 -79 -328 -89 -30 -3 -71
-8 -90 -10 -53 -6 -231 -6 -265 0 -16 3 -97 7 -180 9 -185 4 -326 16 -320 26
3 5 -4 6 -14 3 -11 -3 -104 3 -208 13 -136 12 -271 17 -488 16 -302 -1 -677
-15 -706 -27 -11 -4 -21 5 -35 30 -16 30 -21 33 -30 20 -18 -24 0 -91 35 -135
35 -44 38 -57 45 -190 l5 -96 -39 1 c-40 0 -43 11 -6 25 16 6 6 10 -43 15 -50
6 -70 14 -88 33 -18 19 -23 21 -23 8 0 -16 75 -96 91 -96 20 0 7 -31 -17 -42
-21 -10 -31 -9 -60 7 -20 10 -46 32 -59 47 -13 15 -26 24 -30 19 -8 -14 54
-82 90 -97 25 -11 27 -13 8 -14 -12 0 -33 4 -46 9 -20 8 -27 6 -31 -5 -8 -20
-8 -39 0 -31 7 7 54 -33 54 -46 0 -4 -6 -15 -14 -22 -12 -12 -15 -12 -19 5 -3
14 -1 17 12 13 14 -4 14 -3 1 6 -24 17 -33 13 -26 -11 12 -38 13 -62 3 -75
-12 -17 5 -17 23 0 12 10 12 9 2 -4 -6 -9 -9 -19 -5 -23 4 -4 -1 -4 -11 0 -14
5 -17 3 -14 -7 3 -8 12 -13 19 -11 11 3 11 1 2 -9 -9 -9 -35 -1 -114 34 -56
26 -105 44 -109 42 -4 -2 -7 2 -7 10 0 8 6 15 13 15 15 0 54 69 54 94 0 8 -5
18 -12 22 -8 5 -9 2 -5 -10 8 -19 -27 -96 -43 -96 -6 0 -3 14 5 33 14 28 14
30 0 13 -27 -35 -54 -124 -66 -218 -17 -139 1 -719 25 -803 20 -70 92 -97 357
-135 125 -19 160 -27 185 -47 29 -21 31 -26 24 -63 -4 -22 -4 -40 0 -40 10 0
8 -13 -9 -63 -7 -21 -11 -49 -8 -62 2 -15 -1 -25 -10 -27 -9 -2 -7 -10 9 -29
25 -29 88 -65 88 -50 0 5 34 -2 75 -16 41 -14 75 -29 75 -33 0 -10 38 -18 95
-21 22 -2 47 -8 55 -15 20 -16 116 -37 140 -31 24 6 145 -16 162 -30 12 -10
63 -21 125 -29 13 -1 25 1 28 6 3 5 20 4 38 0 17 -5 47 -11 66 -14 19 -2 37
-8 40 -13 9 -12 47 -17 118 -17 34 0 57 -4 50 -8 -7 -5 -2 -8 13 -8 168 -4
241 -10 266 -23 38 -19 154 -33 154 -18 0 7 10 9 23 7 12 -3 44 -8 72 -11 27
-3 54 -10 60 -15 13 -11 140 -21 149 -12 10 9 140 2 146 -8 7 -11 148 -22 154
-11 6 10 136 2 151 -9 14 -10 145 -13 145 -3 0 10 137 10 146 0 9 -9 149 -9
158 0 10 10 146 12 146 2 0 -11 142 -2 149 10 8 12 149 22 156 11 3 -5 11 -7
18 -5 7 2 36 6 65 9 29 2 60 10 68 17 10 8 38 10 97 5 172 -14 461 0 492 24 6
4 44 13 85 20 41 7 111 26 155 43 44 17 86 32 94 33 29 5 121 47 121 55 0 14
70 39 110 39 21 0 40 5 42 12 5 15 140 49 152 38 4 -4 22 -4 40 1 17 5 45 12
61 15 17 2 35 11 40 18 6 7 28 17 50 21 22 5 47 10 55 12 8 2 38 6 65 8 62 5
129 22 100 25 -17 2 -16 3 5 9 14 4 27 4 30 1 7 -10 140 23 148 36 9 15 95 34
168 39 74 5 115 13 131 27 7 6 35 15 61 20 74 15 92 16 92 7 0 -5 10 -7 23 -5
12 3 28 5 35 5 8 1 10 6 6 14 -5 7 0 6 11 -3 10 -8 16 -10 12 -4 -8 14 53 26
69 13 6 -5 13 -7 15 -5 2 2 28 7 58 10 30 4 61 12 69 18 19 16 32 18 132 23
100 4 163 14 170 26 8 11 74 22 135 21 60 0 158 17 166 29 7 12 114 13 304 4
193 -8 262 -7 285 5 10 6 34 10 52 10 19 0 38 4 44 9 5 4 31 14 58 20 71 17
137 54 178 99 88 97 153 320 164 564 3 68 12 141 19 163 8 22 18 65 24 95 5
31 12 69 16 85 4 17 3 25 -2 19 -4 -7 -8 48 -8 121 0 73 -3 131 -7 128 -5 -2
-8 0 -8 5 0 5 -9 12 -20 15 -11 3 -20 10 -20 16 0 7 9 5 24 -4 24 -16 25 -15
43 11 36 56 28 246 -17 389 -10 33 -21 100 -24 149 -4 48 -11 96 -17 105 -7
12 -9 -4 -5 -56 4 -42 2 -74 -4 -78 -5 -3 -6 -13 -3 -22 5 -12 3 -14 -7 -8 -9
5 -11 4 -6 -4 4 -6 7 -30 8 -54 0 -23 7 -54 14 -69 9 -17 10 -28 4 -28 -12 0
-9 -22 5 -32 6 -4 13 3 17 15 4 12 5 5 2 -17 -7 -50 -46 -137 -70 -156 -15
-12 -15 -10 3 13 24 31 58 125 49 134 -3 3 -9 -3 -13 -13 -9 -26 -26 -36 -35
-21 -6 9 -8 8 -8 -2 0 -8 -16 4 -35 26 -67 79 -166 104 -251 63 -23 -12 -66
-46 -95 -78 -30 -31 -63 -57 -74 -58 -11 0 -35 -4 -52 -8 -46 -11 -120 13
-227 74 -49 27 -95 50 -101 50 -7 0 -18 6 -24 14 -8 9 -25 13 -49 10 -20 -3
-45 -5 -55 -5 -11 0 -15 -5 -10 -12 5 -9 2 -8 -9 0 -8 7 -17 11 -19 9 -2 -2
-23 -7 -46 -11 -42 -6 -43 -5 -44 22 -2 24 -2 25 -6 5 -3 -13 -14 -27 -26 -31
-33 -13 -376 -51 -454 -51 -91 0 -337 -17 -503 -36 -74 -8 -173 -17 -219 -19
-46 -2 -104 -8 -130 -14 -48 -11 -114 -19 -166 -21 -20 0 -26 -3 -17 -9 11 -7
11 -9 -2 -14 -8 -3 -18 -1 -22 4 -3 6 -14 9 -25 6 -19 -5 -22 2 -34 95 -6 46
-6 46 -36 38 -16 -5 -64 -14 -107 -20 -42 -7 -80 -17 -84 -23 -14 -24 -20 25
-8 64 17 51 38 70 32 29 -4 -26 -1 -30 19 -29 13 1 35 5 49 9 22 7 20 8 -15 9
-60 2 -23 17 58 24 60 4 67 3 67 -14 0 -10 5 -21 10 -24 7 -4 9 2 4 19 -5 19
-2 26 9 26 26 0 281 28 592 65 478 57 884 104 965 110 104 9 142 20 245 72 50
25 142 62 205 82 77 25 116 43 118 54 3 13 -9 15 -90 12 -115 -5 -501 -46
-508 -55 -5 -6 -17 -7 -135 -15 -38 -3 -83 -6 -100 -7 -20 -2 -30 2 -33 13 -3
16 64 42 148 56 l45 7 -45 9 c-86 16 -113 14 -125 -10 -7 -13 -19 -31 -27 -40
-9 -10 -13 -23 -11 -30 5 -14 8 -13 -312 -63 -233 -37 -790 -135 -894 -159
-23 -5 -41 -6 -41 -2 0 7 -27 160 -36 206 -6 30 -6 30 11 8 9 -13 25 -23 35
-23 11 0 24 -8 29 -18 12 -22 71 -18 71 4 0 11 11 10 50 -6 53 -21 101 -24
135 -10 11 5 14 9 8 9 -7 1 -13 10 -13 20 0 11 -13 30 -29 44 -23 19 -58 93
-48 103 7 7 283 35 301 30 33 -9 266 13 320 30 44 14 223 33 466 49 220 15
664 57 686 65 22 9 24 15 24 82 0 62 -4 80 -29 123 -60 104 -417 421 -451 400
-6 -4 -9 -1 -8 7 2 7 -5 12 -14 12 -10 -1 -16 1 -13 5 6 11 -54 43 -67 35 -6
-4 -8 -3 -5 3 8 13 -68 47 -84 38 -7 -5 -10 -4 -5 3 8 13 -89 46 -106 36 -8
-4 -10 -3 -5 2 7 8 -60 29 -163 50 -14 3 -32 8 -40 11 -21 8 -46 10 -265 17
-150 4 -202 3 -247 -9z m516 -75 c27 -5 51 -12 53 -13 2 -2 21 -52 43 -111 55
-146 106 -332 138 -508 18 -104 30 -148 40 -148 7 0 10 5 6 11 -4 7 -1 10 6 7
8 -2 15 -9 17 -15 5 -13 -19 -16 -267 -36 -157 -13 -180 -13 -168 -2 4 4 317
35 361 35 16 0 17 6 12 48 -4 26 -11 63 -16 82 -6 27 -7 21 -3 -25 3 -33 7
-68 10 -77 3 -10 1 -18 -3 -18 -5 0 -20 41 -32 90 -13 50 -26 90 -28 90 -3 0
-2 -28 1 -62 4 -34 3 -59 -1 -54 -4 4 -8 11 -8 14 -2 21 -29 119 -37 132 -7
11 -8 9 -4 -8 3 -16 1 -22 -8 -19 -9 4 -12 -5 -11 -27 0 -18 -4 -33 -10 -33
-6 0 -10 13 -9 29 1 15 -2 30 -6 33 -5 3 -7 -7 -4 -22 4 -21 2 -25 -6 -17 -6
6 -12 21 -13 33 -1 11 -4 21 -8 21 -4 0 -9 8 -12 19 -5 20 -54 34 -64 18 -4
-6 -1 -7 7 -2 9 6 11 4 5 -4 -9 -15 -21 -4 -28 24 -3 12 -5 6 -6 -15 -1 -52
12 -66 67 -69 6 -1 12 -5 12 -11 0 -11 -45 -20 -133 -24 -68 -3 -69 -3 -90 30
-12 19 -25 34 -29 34 -4 0 5 -19 21 -42 63 -95 81 -124 81 -131 0 -4 -11 -7
-25 -7 -14 0 -25 -3 -25 -7 0 -5 -101 -8 -225 -9 -124 0 -225 3 -225 8 0 4 19
8 43 9 154 4 250 9 307 17 60 9 62 10 20 11 -42 1 -47 4 -73 47 -15 25 -22 42
-15 39 7 -4 6 -1 -3 7 -18 15 -34 52 -19 43 6 -3 10 -2 10 3 0 5 -10 12 -22
16 -33 8 -294 6 -350 -3 -27 -4 -48 -4 -48 0 0 5 20 20 45 35 57 33 60 43 4
12 -49 -27 -92 -77 -99 -115 -4 -19 -10 2 -19 67 -7 52 -18 101 -23 108 -8 9
9 52 60 156 108 219 170 276 341 312 75 15 381 12 465 -6z m-634 6 c0 -2 -8
-10 -17 -17 -16 -13 -17 -12 -4 4 13 16 21 21 21 13z m777 -46 c24 0 138 -43
208 -78 156 -78 319 -202 431 -329 91 -103 101 -121 107 -188 4 -43 3 -50 -2
-25 -5 19 -9 28 -10 20 0 -9 -9 -16 -20 -16 -12 0 -17 5 -13 14 3 8 1 17 -4
21 -5 3 -16 20 -25 36 -9 17 -21 29 -26 28 -13 -3 -12 15 1 36 7 11 5 13 -6 9
-16 -7 -21 19 -8 37 5 6 -3 18 -16 28 -15 11 -24 13 -24 6 0 -8 -5 -7 -17 2
-16 13 -17 12 -5 -3 11 -13 11 -18 0 -24 -19 -12 -39 -14 -32 -3 3 5 0 9 -7 9
-7 0 -9 3 -6 6 4 4 13 1 22 -6 13 -11 14 -10 10 3 -9 21 -55 29 -48 8 4 -10 0
-9 -10 4 -8 11 -19 20 -24 20 -4 0 -24 11 -43 25 -20 14 5 -18 58 -73 50 -54
92 -102 92 -107 0 -11 -156 -13 -237 -4 -51 7 -52 7 -46 35 3 16 2 40 -1 54
-5 20 -12 25 -39 25 -70 0 -73 4 -113 123 -40 119 -82 221 -83 198 -1 -10 -4
-11 -15 -2 -12 10 -17 8 -26 -10 -7 -12 -8 -19 -2 -15 10 6 26 -23 17 -32 -3
-3 -5 0 -5 6 0 7 -5 12 -11 12 -6 0 -8 -7 -5 -16 8 -22 18 -73 10 -54 -15 37
-94 242 -94 245 0 2 12 -3 28 -11 15 -7 33 -14 39 -14z m66 -124 c3 3 4 -1 3
-10 -1 -8 -6 -19 -11 -23 -4 -4 -5 -2 -1 5 4 7 1 15 -8 18 -9 3 -16 11 -16 16
0 7 5 6 13 -1 8 -6 16 -8 20 -5z m551 -294 c3 -5 1 -22 -4 -38 -4 -16 -9 -21
-9 -11 -1 9 -8 17 -16 17 -18 0 -19 12 -3 28 14 14 25 15 32 4z m-641 -157
c-3 -9 -8 -14 -10 -11 -3 3 -2 9 2 15 9 16 15 13 8 -4z m611 -1 c3 -8 1 -14
-4 -14 -6 0 -10 6 -10 13 0 7 -3 8 -8 2 -6 -9 -39 -12 -67 -6 -16 4 22 16 54
17 17 1 32 -4 35 -12z m-1569 -82 c-7 -36 21 -64 62 -62 15 1 42 1 58 -1 17
-1 -8 -5 -55 -8 -47 -3 -87 -5 -89 -4 -5 3 20 103 26 103 2 0 2 -13 -2 -28z
m1620 -22 c-11 -5 -54 -13 -95 -18 -75 -10 -74 -10 35 -7 61 2 103 2 95 0 -29
-8 -493 -46 -498 -40 -3 3 4 5 16 5 24 0 38 16 20 23 -7 3 -1 6 13 6 15 1 41
4 58 7 20 4 31 3 31 -5 0 -6 -15 -11 -32 -12 -18 0 -28 -2 -23 -5 6 -2 51 0
100 5 50 4 74 9 55 10 -68 3 -7 19 100 26 58 4 107 9 109 11 2 2 11 4 20 3 12
0 11 -3 -4 -9z m133 -17 c-10 -2 -26 -2 -35 0 -10 3 -2 5 17 5 19 0 27 -2 18
-5z m-421 -9 c-3 -3 -12 -4 -19 -1 -8 3 -5 6 6 6 11 1 17 -2 13 -5z m-1377
-50 c0 -3 -4 -3 -8 0 -4 3 -26 1 -47 -4 -51 -11 -58 -4 -14 14 31 13 69 7 69
-10z m597 -60 c-3 -3 -12 -4 -19 -1 -8 3 -5 6 6 6 11 1 17 -2 13 -5z m-69 -11
c-10 -2 -28 -2 -40 0 -13 2 -5 4 17 4 22 1 32 -1 23 -4z m-685 -102 l29 -18
-32 -5 c-28 -4 -50 11 -50 36 0 12 26 5 53 -13z m1512 -90 c-3 -6 -14 -11 -23
-11 -13 0 -13 2 4 14 21 15 30 14 19 -3z m-78 -36 c-28 -25 -71 -33 -81 -16
-4 5 3 7 14 4 11 -3 34 4 52 16 44 28 49 26 15 -4z m-770 -71 c-3 -3 -12 -4
-19 -1 -8 3 -5 6 6 6 11 1 17 -2 13 -5z m63 -4 c18 -12 2 -12 -25 0 -13 6 -15
9 -5 9 8 0 22 -4 30 -9z m-4610 -218 c54 -8 54 -8 20 -15 -19 -4 -41 -8 -47
-9 -7 -1 -13 -5 -13 -10 0 -4 -3 -8 -7 -7 -15 2 -57 -14 -120 -46 -38 -19 -57
-25 -48 -15 13 15 22 70 11 70 -2 0 -13 3 -23 6 -17 5 -17 5 0 -6 41 -26 -1
-84 -88 -119 -30 -12 -42 -20 -30 -21 l20 -1 -20 -9 c-28 -12 -213 -12 -255 0
-63 18 -257 41 -367 43 -71 2 -116 7 -133 17 -14 8 -31 13 -37 12 -7 -2 -13 3
-13 9 0 7 -3 9 -6 6 -10 -10 17 -38 29 -30 6 3 7 1 3 -5 -5 -9 -13 -9 -26 -2
-13 7 -21 7 -26 -2 -5 -7 -3 -8 7 -3 12 8 12 6 0 -8 -21 -26 -24 -21 -18 36 4
43 1 56 -15 73 l-20 22 43 7 c133 23 1028 28 1179 7z m533 -39 c-7 -2 -21 -2
-30 0 -10 3 -4 5 12 5 17 0 24 -2 18 -5z m-120 -10 c-7 -2 -19 -2 -25 0 -7 3
-2 5 12 5 14 0 19 -2 13 -5z m244 -9 c-3 -3 -12 -4 -19 -1 -8 3 -5 6 6 6 11 1
17 -2 13 -5z m138 -4 c-4 -6 7 -10 24 -10 33 0 42 -16 14 -23 -10 -3 -1 -5 19
-6 43 -1 190 -22 186 -26 -3 -3 -281 -52 -513 -91 -126 -21 -128 -21 -322 -5
-107 8 -167 10 -179 3 -13 -7 12 -12 92 -17 179 -12 323 -32 349 -49 29 -19
33 -60 8 -75 -11 -6 -13 -11 -5 -11 8 0 -7 -39 -40 -102 -60 -116 -155 -226
-218 -254 -22 -10 -36 -22 -33 -27 3 -6 1 -7 -6 -3 -6 4 -19 2 -28 -6 -21 -17
-409 -18 -465 -1 -32 9 -36 9 -31 -4 10 -26 -13 -10 -51 35 -48 58 -59 105
-59 243 0 96 4 123 22 164 12 26 29 54 39 61 9 7 12 14 5 14 -34 1 -71 -88
-91 -220 -10 -65 -10 -64 -7 32 2 54 -1 101 -6 104 -5 3 -9 -21 -9 -54 0 -104
-20 -266 -38 -302 -20 -40 -55 -51 -142 -44 -184 16 -330 66 -369 127 -11 17
-21 28 -21 22 0 -14 37 -75 64 -104 l21 -24 -23 12 c-34 18 -69 78 -88 151
-22 81 -26 303 -6 337 27 49 158 53 394 13 129 -21 177 -43 201 -90 l19 -35
-5 35 c-3 19 -8 42 -11 50 -5 13 2 15 41 11 51 -4 203 27 203 41 0 5 5 6 11 2
17 -10 194 -5 197 6 2 6 18 10 35 9 27 0 29 -2 12 -9 -15 -7 -10 -9 25 -10 25
-1 56 -3 70 -4 87 -11 342 -16 380 -7 25 5 90 15 145 21 96 10 140 17 140 20
0 1 10 3 22 4 13 2 26 5 29 9 4 3 -13 4 -37 2 -24 -3 -69 -7 -99 -10 -141 -12
-176 -16 -187 -20 -7 -2 -15 1 -19 7 -4 7 -3 8 4 4 7 -4 12 -3 12 2 0 5 12 9
28 9 15 -1 36 4 47 9 11 5 35 9 53 8 17 -1 32 2 32 8 0 7 5 6 14 -1 9 -8 16
-8 20 -2 4 5 15 8 26 6 12 -2 17 1 14 9 -3 7 1 18 9 24 11 9 14 8 14 -3 0 -8
-4 -12 -9 -9 -4 3 -5 -3 -1 -12 4 -12 8 -14 11 -6 3 9 8 10 17 2 9 -7 16 -6
24 4 10 12 9 14 -6 11 -27 -4 -39 7 -17 16 17 7 17 8 2 8 -31 2 -19 20 15 24
17 2 33 5 35 5 2 1 0 -2 -3 -8z m-75 -4 c0 -3 -4 -8 -10 -11 -5 -3 -10 -1 -10
4 0 6 5 11 10 11 6 0 10 -2 10 -4z m-305 -15 c3 -5 2 -12 -3 -15 -5 -3 -9 1
-9 9 0 17 3 19 12 6z m253 -1 c-1 -18 4 -23 12 -10 7 12 9 10 7 -7 -1 -21 -2
-21 -20 -5 -19 16 -19 16 -13 -8 6 -24 6 -24 -9 3 -9 15 -18 27 -21 27 -3 0
-2 -4 1 -10 3 -5 1 -18 -5 -27 -11 -17 -11 -17 -6 0 5 15 2 17 -17 11 -12 -3
-27 -11 -34 -16 -12 -10 -30 8 -19 19 3 4 6 1 6 -6 0 -7 5 -9 10 -6 8 5 7 12
-2 23 -12 15 -11 16 5 3 15 -12 20 -9 19 9 0 3 19 6 43 6 24 0 43 -3 43 -6z
m-163 -31 c-8 -12 -35 -12 -35 1 0 5 7 6 17 3 12 -5 14 -3 8 7 -5 9 -4 11 4 6
6 -4 9 -12 6 -17z m1349 9 c-3 -4 -15 -8 -27 -8 -15 0 -18 3 -9 8 17 11 43 11
36 0z m-1401 -6 c4 9 6 9 6 -2 1 -8 -7 -20 -17 -26 -15 -10 -18 -8 -18 12 0
17 3 20 12 13 8 -7 14 -6 17 3z m72 -13 c-5 -16 -4 -19 5 -14 9 6 11 4 5 -4
-10 -18 -27 2 -19 22 9 25 17 21 9 -4z m-119 -13 c3 -18 -29 -13 -34 5 -3 11
-1 11 7 -1 10 -14 16 -7 11 15 -1 6 2 6 6 2 4 -4 9 -14 10 -21z m4967 17 c-7
-2 -19 -2 -25 0 -7 3 -2 5 12 5 14 0 19 -2 13 -5z m-2996 -35 c73 -39 69 -60
-22 -131 -125 -96 -261 -169 -391 -212 -85 -28 -302 -57 -621 -84 -257 -21
-292 -18 -401 36 -73 36 -82 38 -165 36 -105 -2 -107 11 -3 20 54 5 86 3 117
-8 23 -8 60 -15 83 -15 23 0 46 -4 51 -9 6 -5 34 -18 63 -30 39 -14 50 -16 41
-5 -16 20 5 19 36 -2 21 -14 43 -15 137 -10 245 14 537 49 568 68 11 6 8 7 -8
3 -18 -5 -25 -2 -29 14 -4 16 -9 19 -18 11 -7 -6 -20 -8 -29 -4 -9 3 -16 1
-16 -6 0 -6 6 -8 13 -4 7 4 9 3 4 -2 -5 -5 -12 -8 -15 -8 -4 1 -16 -5 -27 -12
-12 -9 -47 -14 -95 -14 -83 0 -110 12 -134 59 -12 23 -20 27 -48 24 -18 -2
-43 -4 -54 -4 -15 0 -26 -9 -34 -30 -20 -48 -48 -60 -126 -57 -68 3 -68 3 -98
46 -31 44 -38 88 -23 149 8 30 7 32 -20 28 -15 -2 -73 -6 -128 -10 -55 -4
-108 -9 -117 -11 -10 -3 -18 -1 -18 5 0 36 264 107 470 126 36 3 142 15 235
26 343 41 434 47 600 46 164 -2 172 -3 222 -29z m2911 25 c-10 -2 -26 -2 -35
0 -10 3 -2 5 17 5 19 0 27 -2 18 -5z m-4925 -17 c4 -11 1 -13 -10 -9 -12 5
-14 3 -8 -7 5 -9 4 -11 -4 -6 -9 6 -9 11 0 22 14 17 16 17 22 0z m4844 8 c-3
-3 -12 -4 -19 -1 -8 3 -5 6 6 6 11 1 17 -2 13 -5z m-90 -10 c-3 -3 -12 -4 -19
-1 -8 3 -5 6 6 6 11 1 17 -2 13 -5z m-80 -10 c-3 -3 -12 -4 -19 -1 -8 3 -5 6
6 6 11 1 17 -2 13 -5z m1173 -47 c0 -2 -10 -12 -22 -23 l-23 -19 19 23 c18 21
26 27 26 19z m-3554 -72 c47 -33 92 -73 110 -101 l32 -45 -46 -50 c-25 -27
-47 -49 -50 -49 -2 0 1 6 7 14 8 10 6 19 -9 39 -11 14 -20 29 -20 34 0 4 11
-5 24 -22 l23 -29 5 36 c2 20 0 34 -4 32 -4 -3 -8 -12 -8 -20 0 -12 -2 -12
-14 -2 -8 7 -12 16 -9 21 2 4 2 7 -1 7 -10 0 -128 -164 -151 -210 -14 -27 -30
-52 -36 -56 -8 -5 -9 -3 -3 7 12 20 14 39 3 39 -6 0 -7 5 -4 10 4 6 12 7 18 4
9 -5 8 -3 0 6 -10 11 -10 17 -1 29 7 9 8 13 4 9 -5 -4 -16 -2 -25 4 -13 10
-14 10 -4 -2 19 -21 -4 -45 -25 -28 -13 10 -14 10 -8 1 10 -18 -5 -16 -34 4
-20 13 -22 14 -13 2 7 -9 10 -19 6 -23 -4 -4 1 -4 12 0 21 8 21 6 -9 -16 -11
-8 -17 -10 -13 -4 4 7 -1 18 -10 25 -12 10 -14 10 -9 2 4 -7 2 -13 -3 -13 -6
0 -11 5 -11 12 0 6 -3 8 -6 5 -4 -4 -2 -13 4 -20 16 -19 4 -27 -24 -17 -15 6
-26 5 -30 -2 -4 -6 -3 -8 3 -5 5 3 10 0 10 -8 0 -13 -2 -13 -16 -1 -16 15 -44
16 -57 3 -4 -4 -13 -2 -20 4 -10 8 -12 6 -9 -11 3 -14 0 -20 -8 -17 -7 2 -12
9 -12 14 0 6 -3 14 -7 18 -9 9 -4 -17 6 -34 7 -11 5 -13 -6 -9 -8 4 -15 1 -15
-7 0 -7 6 -11 14 -8 7 3 13 -1 13 -8 0 -7 -3 -9 -7 -6 -3 4 -13 1 -21 -5 -22
-19 -42 -19 -34 0 5 15 4 15 -11 3 -9 -7 -14 -18 -10 -24 3 -6 1 -7 -6 -3 -6
4 -9 12 -5 18 3 5 -2 8 -12 7 -11 -2 -25 0 -33 5 -10 6 -12 5 -7 -3 6 -8 2
-11 -10 -9 -12 2 -18 -2 -16 -10 2 -9 -4 -11 -18 -7 -12 4 -20 2 -20 -5 0 -6
4 -9 9 -5 5 3 12 1 15 -4 4 -5 2 -12 -3 -15 -5 -4 -12 -2 -16 4 -3 5 -13 10
-21 10 -8 0 -12 -4 -9 -10 3 -5 2 -10 -4 -10 -5 0 -11 -10 -13 -22 -2 -13 -9
-22 -16 -21 -6 2 -12 -2 -12 -7 0 -6 -7 -10 -16 -10 -14 0 -15 2 -3 18 13 15
12 16 -4 3 -9 -8 -15 -16 -12 -20 3 -3 -15 -15 -40 -28 l-47 -22 -36 19 c-20
11 -43 20 -50 20 -7 0 -10 5 -7 10 3 6 14 10 25 10 22 0 120 87 120 107 0 8
-9 17 -19 20 -18 5 -18 6 5 41 60 92 77 112 102 118 15 4 51 18 81 30 29 13
57 21 62 18 13 -8 169 66 166 79 -1 5 21 25 48 44 47 33 35 18 -23 -28 -18
-13 -21 -19 -9 -15 25 8 203 127 247 165 19 17 38 30 41 31 3 0 41 -25 85 -55z
m-2167 35 c4 0 13 -18 20 -40 15 -49 4 -95 -46 -195 -53 -106 -118 -199 -174
-249 l-51 -46 33 7 c19 3 58 14 87 24 28 10 52 15 52 12 0 -3 7 0 15 7 9 7 18
10 22 7 3 -4 13 -2 22 2 16 9 85 21 147 26 17 1 41 6 55 10 31 10 98 17 289
30 30 2 55 4 55 5 0 1 54 3 120 5 66 1 109 0 95 -2 -14 -3 -28 -10 -32 -17 -6
-8 -8 -7 -8 2 0 9 -5 10 -19 3 -10 -6 -22 -7 -26 -3 -3 4 -13 -1 -20 -12 -8
-10 -20 -16 -27 -14 -7 3 -30 -1 -51 -8 -20 -7 -128 -27 -240 -44 -111 -17
-206 -32 -212 -35 -12 -4 175 5 191 10 6 2 16 0 23 -4 8 -5 -6 -15 -36 -26
-26 -10 -75 -30 -108 -45 -33 -15 -67 -30 -75 -33 -23 -8 28 -8 220 3 96 5
258 11 360 14 168 4 173 4 60 -4 -69 -5 -253 -16 -410 -25 -158 -8 -339 -24
-405 -35 -66 -11 -124 -20 -129 -20 -4 0 -6 -9 -3 -19 2 -10 1 -25 -4 -32 -4
-8 -3 -20 4 -29 11 -13 10 -13 -5 -1 -10 7 -15 18 -11 24 3 6 1 7 -5 3 -6 -4
-22 0 -34 8 -45 29 -147 45 -453 71 -170 15 -341 30 -380 34 -98 12 -21 12
100 1 381 -35 527 -43 536 -29 7 11 9 11 9 1 0 -10 3 -10 14 0 8 7 12 16 10
20 -2 4 1 10 7 14 8 5 9 3 4 -6 -6 -10 -2 -12 16 -6 13 4 35 9 48 12 14 3 28
7 33 10 5 3 21 8 36 11 15 3 34 6 42 8 8 2 21 4 28 4 6 1 12 5 12 10 0 6 -27
8 -62 5 -113 -9 -511 -6 -623 5 -60 6 -167 16 -238 22 -70 7 -126 14 -123 16
6 7 261 5 299 -2 l38 -7 -25 37 c-15 21 -26 43 -26 49 1 6 9 -5 20 -24 10 -19
32 -43 48 -52 87 -51 476 -50 597 2 25 11 61 31 80 45 79 61 215 304 223 399
4 48 2 55 -24 76 -17 13 -21 20 -11 17 10 -4 22 -7 26 -7z m5761 -14 c0 -3 -4
-8 -10 -11 -5 -3 -10 -1 -10 4 0 6 5 11 10 11 6 0 10 -2 10 -4z m-40 -46 c-6
-11 -13 -20 -16 -20 -2 0 0 9 6 20 6 11 13 20 16 20 2 0 0 -9 -6 -20z m250
-44 c19 -13 50 -49 68 -79 l33 -55 -26 -51 c-29 -59 -52 -69 -28 -13 28 67 32
90 18 109 -16 21 -12 25 -54 -57 -49 -94 -54 -94 -15 1 18 46 34 91 34 99 0
23 -62 60 -102 60 -36 0 -93 -34 -83 -50 3 -5 -4 -15 -15 -22 -38 -23 -60 -79
-50 -124 5 -21 9 -57 9 -79 -1 -32 -4 -26 -13 30 l-12 70 -22 -69 c-12 -37
-22 -75 -22 -84 0 -8 -3 -13 -6 -9 -20 19 54 223 103 285 51 64 124 79 183 38z
m-277 -6 c-3 -11 -9 -20 -13 -20 -5 0 -6 9 -3 20 3 11 9 20 13 20 5 0 6 -9 3
-20z m-2333 6 c0 -2 -7 -7 -16 -10 -8 -3 -12 -2 -9 4 6 10 25 14 25 6z m2423
-3 c-7 -2 -13 -10 -13 -16 0 -7 -7 -20 -14 -30 -12 -15 -14 -15 -19 -2 -4 8
-1 14 6 12 7 -1 11 4 9 12 -3 15 15 31 33 30 6 0 4 -3 -2 -6z m-5599 -65 c-65
-71 -97 -117 -90 -133 4 -12 2 -13 -14 -3 -10 7 -16 16 -13 21 3 5 -3 4 -14
-1 -16 -9 -19 -7 -21 19 -1 16 2 29 8 29 5 0 6 8 3 18 -6 14 -4 15 9 4 13 -11
16 -10 14 5 0 10 5 17 13 15 9 -2 11 3 7 13 -3 9 -2 13 3 10 5 -3 12 -1 16 5
9 15 25 12 25 -4 0 -8 4 -17 9 -20 5 -4 6 9 1 29 -5 20 -4 33 1 29 5 -3 9 -17
9 -32 l0 -26 23 32 c13 17 28 28 32 24 5 -4 5 2 1 13 -6 16 -5 17 5 8 10 -10
4 -21 -27 -55z m2183 46 c-3 -3 -12 -4 -19 -1 -8 3 -5 6 6 6 11 1 17 -2 13 -5z
m-4060 -50 c-2 -2 -20 3 -40 10 -20 7 -34 15 -31 19 3 3 21 -2 40 -10 19 -9
33 -18 31 -19z m4276 29 c-7 -2 -19 -2 -25 0 -7 3 -2 5 12 5 14 0 19 -2 13 -5z
m3077 -33 c-16 -40 -23 -33 -9 9 6 18 14 30 17 27 2 -3 -1 -19 -8 -36z m-3020
20 c13 -8 13 -10 -2 -10 -9 0 -20 5 -23 10 -8 13 5 13 25 0z m640 -14 c0 -2
-8 -10 -17 -17 -16 -13 -17 -12 -4 4 13 16 21 21 21 13z m-735 -16 c0 -1 10
-3 23 -4 12 -2 22 2 22 7 0 6 11 -2 24 -16 26 -28 68 -43 86 -32 5 3 13 -2 17
-12 8 -22 33 -42 53 -42 10 -1 7 6 -10 20 -16 13 -18 17 -5 10 36 -19 54 -37
65 -65 5 -15 14 -24 20 -21 6 3 7 -1 4 -10 -6 -14 -8 -14 -25 1 -11 9 -19 14
-19 9 0 -17 35 -33 51 -24 12 6 21 3 30 -9 13 -15 12 -16 -3 -3 -12 9 -18 10
-18 2 0 -6 7 -14 15 -17 8 -4 15 -12 15 -20 0 -7 6 -11 14 -8 14 5 26 -23 26
-66 0 -18 3 -21 9 -11 7 11 11 9 21 -9 10 -18 9 -24 -1 -31 -10 -6 -18 0 -28
19 -31 60 -97 132 -175 190 -88 65 -231 83 -339 42 -32 -12 -61 -20 -63 -17
-3 3 19 15 48 26 31 13 41 19 23 16 -35 -6 -69 13 -60 35 3 8 17 16 31 17 15
0 30 6 34 12 3 7 14 9 22 6 9 -4 19 -2 22 4 5 8 71 9 71 1z m3259 -86 l6 -59
-14 60 c-8 33 -15 69 -15 80 0 40 17 -19 23 -81z m-74 82 c0 -9 -30 -14 -35
-6 -4 6 3 10 14 10 12 0 21 -2 21 -4z m-3054 -22 c18 -14 18 -14 -6 -3 -31 14
-36 19 -24 19 6 0 19 -7 30 -16z m546 -36 c-16 -24 -42 -67 -57 -97 -19 -39
-29 -50 -35 -41 -10 17 -11 15 57 108 57 77 83 100 35 30z m2409 9 c-10 -9
-11 -8 -5 6 3 10 9 15 12 12 3 -3 0 -11 -7 -18z m-3261 -30 c24 1 24 0 3 -9
-16 -8 -27 -6 -45 7 -19 14 -19 16 -3 10 11 -5 31 -8 45 -8z m-2041 -31 c-2
-2 -53 -6 -114 -8 -60 -3 -99 -2 -85 2 25 8 207 13 199 6z m2326 -27 c28 -10
64 -30 80 -45 17 -14 24 -22 16 -18 -9 4 -12 3 -7 -4 4 -6 13 -9 20 -6 15 6
69 -53 124 -136 101 -152 158 -421 132 -631 -12 -101 -47 -260 -49 -221 -1 12
-8 25 -16 28 -18 7 -20 44 -2 45 6 0 -1 7 -18 15 l-30 15 42 -5 c30 -3 43 0
47 11 10 25 7 83 -4 83 -16 0 -30 44 -17 52 8 5 7 9 -3 12 -8 2 -28 9 -45 15
l-30 11 35 -5 c19 -3 47 -8 63 -11 26 -6 27 -5 27 40 0 165 -44 359 -112 488
-35 68 -58 96 -58 70 0 -5 -6 -17 -14 -27 -13 -18 -14 -17 -9 10 7 39 -9 22
-26 -28 -7 -21 -28 -61 -48 -90 -40 -60 -40 -55 3 28 17 33 39 82 49 108 18
48 18 48 -5 72 -13 14 -26 25 -29 25 -3 0 -19 -20 -34 -45 -16 -25 -31 -45
-34 -45 -5 0 3 14 29 52 22 32 22 38 3 38 -8 0 -15 -5 -15 -12 0 -6 -2 -9 -5
-6 -3 3 0 18 7 32 14 32 11 35 -70 66 -34 13 -80 21 -130 21 -65 2 -86 -2
-135 -25 -57 -27 -173 -125 -149 -126 6 0 12 5 12 11 0 5 5 7 10 4 6 -3 10
-14 10 -24 0 -19 33 -55 42 -45 9 8 40 -102 45 -156 3 -41 1 -38 -25 35 -46
130 -86 188 -107 155 -4 -6 -10 -8 -14 -6 -4 3 -8 -10 -9 -28 -1 -30 -32 -106
-32 -78 0 6 -6 12 -13 12 -14 0 -38 -41 -67 -115 -10 -27 -19 -44 -20 -37 0
25 49 132 95 202 91 141 210 226 338 240 68 8 79 6 152 -21z m-4545 -19 c0 -5
-4 -10 -10 -10 -5 0 -10 5 -10 10 0 6 5 10 10 10 6 0 10 -4 10 -10z m7870 -56
c-30 -48 -36 -37 -8 14 13 23 24 37 26 32 2 -6 -6 -26 -18 -46z m-3972 26 c-7
-11 -15 -15 -16 -10 -3 7 -10 6 -20 -2 -15 -12 -16 -11 -3 4 7 10 17 16 21 13
5 -3 11 -1 15 5 3 5 8 10 11 10 2 0 -1 -9 -8 -20z m-3708 -37 c0 4 15 0 32 -9
29 -15 31 -18 14 -24 -14 -4 -16 -9 -8 -14 23 -14 13 -28 -15 -21 -16 4 -35 8
-42 9 -8 2 -17 9 -19 16 -3 8 0 10 8 5 9 -6 10 -3 1 12 -12 24 7 52 21 30 4
-6 8 -9 8 -4z m3487 -15 c2 -17 0 -19 -6 -9 -7 11 -10 10 -13 -5 -3 -17 -4
-17 -10 4 -3 12 -2 20 2 17 5 -3 11 -1 15 5 9 14 11 13 12 -12z m33 18 c0 -3
-4 -8 -10 -11 -5 -3 -10 -1 -10 4 0 6 5 11 10 11 6 0 10 -2 10 -4z m85 -15
c-9 -8 -36 -10 -30 -2 2 4 11 8 20 8 8 0 13 -3 10 -6z m-3715 -31 c-12 -23
-16 -24 -26 -8 -4 6 -3 8 3 5 6 -4 13 0 17 8 3 8 8 15 11 15 3 0 1 -9 -5 -20z
m4097 -6 c-9 -9 -28 6 -21 18 4 6 10 6 17 -1 6 -6 8 -13 4 -17z m-3916 -18
c-14 -36 -22 -33 -9 5 6 16 12 28 14 26 3 -2 0 -16 -5 -31z m7414 14 c3 -5 1
-10 -4 -10 -6 0 -11 5 -11 10 0 6 2 10 4 10 3 0 8 -4 11 -10z m-7390 -24 c0
-15 -4 -21 -9 -16 -5 5 -6 16 -3 24 9 22 12 20 12 -8z m60 -14 l16 -27 -20 23
c-10 12 -24 22 -30 22 -6 0 -11 4 -11 10 0 17 28 -1 45 -28z m2900 27 c4 -5
-12 -28 -36 -50 -44 -40 -70 -52 -47 -21 63 86 70 92 83 71z m-3409 -14 c17
-13 17 -14 2 -15 -25 0 -23 -22 12 -125 25 -75 32 -111 16 -94 -18 19 -66 169
-66 205 0 47 6 52 36 29z m3651 -17 c-3 -8 -6 -5 -6 6 -1 11 2 17 5 13 3 -3 4
-12 1 -19z m1084 -11 c-10 -9 -11 -8 -5 6 3 10 9 15 12 12 3 -3 0 -11 -7 -18z
m-3958 -4 c-7 -2 -19 -2 -25 0 -7 3 -2 5 12 5 14 0 19 -2 13 -5z m-313 -28 c0
-7 12 -18 28 -23 l27 -10 -25 -1 c-14 0 -30 3 -36 7 -12 8 -14 53 -2 46 4 -3
8 -11 8 -19z m-425 9 c9 -4 12 -10 7 -13 -12 -8 16 -143 31 -153 20 -13 43
-10 30 3 -6 6 -9 18 -6 27 5 11 3 13 -7 7 -9 -5 -11 -4 -6 4 10 15 29 3 22
-15 -3 -7 -1 -16 5 -19 5 -4 7 -11 4 -16 -4 -5 -1 -9 6 -9 7 0 10 -2 8 -5 -9
-9 -79 19 -79 31 0 7 -11 47 -24 89 -24 75 -23 81 9 69z m5003 -29 c-3 -3 -9
2 -12 12 -6 14 -5 15 5 6 7 -7 10 -15 7 -18z m-4629 -9 c-15 -13 -49 -25 -49
-17 0 5 8 12 18 14 24 6 36 8 31 3z m7432 -42 c12 -14 -1 -86 -15 -81 -6 2
-10 26 -10 58 2 53 2 53 -12 24 -11 -26 -13 -27 -14 -8 0 12 8 29 18 39 16 17
17 17 21 -2 2 -10 7 -24 12 -30z m-7506 9 c-4 -16 -8 -37 -10 -49 -3 -11 -11
-21 -19 -21 -11 0 -9 10 7 49 22 54 30 62 22 21z m2723 20 c-21 -2 -57 -2 -80
0 -24 2 -7 4 37 4 44 0 63 -2 43 -4z m1225 -74 c5 -19 3 -26 -8 -26 -8 0 -15
3 -16 6 0 3 -2 28 -4 55 -2 47 -2 48 10 20 6 -16 15 -41 18 -55z m-3545 64
c-10 -2 -26 -2 -35 0 -10 3 -2 5 17 5 19 0 27 -2 18 -5z m-18 -33 c186 -19
396 -36 725 -60 94 -7 152 -16 157 -23 10 -15 10 -308 0 -324 -4 -6 -6 60 -4
146 3 121 0 160 -10 168 -7 5 -146 20 -308 32 -162 12 -403 33 -535 46 -132
14 -255 26 -272 27 -18 1 -33 6 -33 11 0 5 19 7 43 3 23 -3 130 -15 237 -26z
m133 23 c-13 -2 -33 -2 -45 0 -13 2 -3 4 22 4 25 0 35 -2 23 -4z m-762 -20
c13 -16 12 -17 -3 -4 -10 7 -18 15 -18 17 0 8 8 3 21 -13z m4956 -5 c-3 -8 -6
-5 -6 6 -1 11 2 17 5 13 3 -3 4 -12 1 -19z m31 -13 c-3 -3 -9 2 -12 12 -6 14
-5 15 5 6 7 -7 10 -15 7 -18z m-5089 -57 c1 -14 6 -28 12 -30 7 -2 7 -12 0
-31 -6 -16 -11 -39 -11 -52 0 -13 -4 -27 -10 -30 -6 -4 -10 34 -9 107 1 72 4
104 9 88 4 -14 8 -37 9 -52z m475 57 c-4 -8 -8 -15 -10 -15 -2 0 -4 7 -4 15 0
8 4 15 10 15 5 0 7 -7 4 -15z m819 -57 l302 -23 3 -149 c1 -82 -1 -153 -5
-157 -16 -15 -1054 87 -1053 104 0 4 0 71 0 150 l0 142 226 -22 c124 -13 362
-33 527 -45z m6227 52 c-8 -5 -22 -9 -30 -9 -10 0 -8 3 5 9 27 12 43 12 25 0z
m-80 -24 c-20 -8 -51 -16 -70 -19 -23 -4 -15 0 20 12 62 21 104 27 50 7z m655
-2 c13 -3 26 -12 29 -19 4 -11 -1 -11 -27 -3 -18 6 -39 17 -47 26 -13 13 -13
14 3 8 11 -3 29 -9 42 -12z m-7598 0 c-3 -3 -12 -4 -19 -1 -8 3 -5 6 6 6 11 1
17 -2 13 -5z m7253 -20 c0 -8 -4 -12 -10 -9 -5 3 -10 10 -10 16 0 5 5 9 10 9
6 0 10 -7 10 -16z m-7440 -36 c0 -4 -4 -8 -10 -8 -5 0 -10 -17 -10 -37 0 -21
-4 -33 -8 -27 -4 6 -16 16 -27 23 l-20 11 20 -2 c17 -3 20 2 18 31 -1 26 1 31
9 20 7 -10 8 -8 4 11 -5 24 -4 24 9 6 8 -11 15 -23 15 -28z m7005 23 c-11 -5
-36 -11 -55 -14 -35 -6 -34 -6 5 8 43 14 84 19 50 6z m-6842 -16 c4 -8 2 -17
-3 -20 -6 -4 -10 3 -10 14 0 25 6 27 13 6z m6744 -11 c-3 -3 -12 -4 -19 -1 -8
3 -5 6 6 6 11 1 17 -2 13 -5z m-52 -13 c-11 -5 -36 -11 -55 -14 -35 -6 -34 -6
5 8 43 14 84 19 50 6z m593 -53 l-23 -43 -3 33 c-3 25 2 37 20 52 31 25 34 10
6 -42z m-4744 31 c11 -10 -101 -63 -263 -125 -41 -16 -80 -34 -87 -41 -9 -9
-55 -13 -166 -13 -84 -1 -227 -5 -318 -10 -90 -5 -167 -7 -170 -4 -11 12 79
80 126 96 41 14 189 36 499 73 28 3 104 14 170 25 116 17 190 17 209 -1z
m-2547 -26 c-3 -10 -5 -4 -5 12 0 17 2 24 5 18 2 -7 2 -21 0 -30z m3657 3 c-3
-15 -8 -25 -11 -23 -2 3 -1 17 3 31 3 15 8 25 11 23 2 -3 1 -17 -3 -31z m2931
15 c-11 -5 -36 -11 -55 -14 -35 -6 -34 -6 5 8 43 14 84 19 50 6z m1000 -13
c14 -6 25 -15 25 -20 0 -6 -6 -7 -12 -4 -7 3 -21 9 -30 12 -10 4 -18 10 -18
15 0 12 4 11 35 -3z m-1134 -24 c-25 -8 -61 -16 -80 -19 -20 -2 -7 4 29 14 75
22 117 26 51 5z m-6413 -26 c-4 -46 -28 -49 -28 -4 0 26 4 36 16 36 11 0 14
-8 12 -32z m7296 -12 c-3 -11 -15 -29 -27 -39 -18 -16 -22 -16 -29 -3 -6 11
-2 23 12 38 11 12 20 25 20 30 0 4 7 5 15 2 10 -4 14 -14 9 -28z m-3554 -6 c0
-11 -7 -20 -15 -20 -13 0 -13 3 -3 20 7 11 14 20 15 20 2 0 3 -9 3 -20z m2547
14 c-3 -3 -12 -4 -19 -1 -8 3 -5 6 6 6 11 1 17 -2 13 -5z m1063 -29 c0 -5 -5
-3 -10 5 -5 8 -10 20 -10 25 0 6 5 3 10 -5 5 -8 10 -19 10 -25z m-1107 18 c-7
-2 -19 -2 -25 0 -7 3 -2 5 12 5 14 0 19 -2 13 -5z m-50 -10 c-7 -2 -19 -2 -25
0 -7 3 -2 5 12 5 14 0 19 -2 13 -5z m-50 -10 c-7 -2 -19 -2 -25 0 -7 3 -2 5
12 5 14 0 19 -2 13 -5z m-2556 -35 c-3 -7 -5 -2 -5 12 0 14 2 19 5 13 2 -7 2
-19 0 -25z m2506 25 c-7 -2 -19 -2 -25 0 -7 3 -2 5 12 5 14 0 19 -2 13 -5z
m-68 -13 c-16 -4 -41 -8 -55 -8 -22 0 -22 1 5 8 17 4 41 8 55 8 22 0 22 -1 -5
-8z m620 -18 c37 -12 37 -12 -140 -57 -235 -60 -716 -152 -1351 -259 -157 -27
-250 -33 -239 -16 3 5 13 6 22 3 11 -4 14 -3 9 5 -4 7 -2 12 4 12 7 0 9 7 6
16 -9 23 42 40 244 84 274 61 991 196 1185 224 45 7 226 -2 260 -12z m-6672 1
c-7 -2 -19 -2 -25 0 -7 3 -2 5 12 5 14 0 19 -2 13 -5z m3744 1 c-3 -3 -12 -4
-19 -1 -8 3 -5 6 6 6 11 1 17 -2 13 -5z m2216 -1 c-7 -2 -19 -2 -25 0 -7 3 -2
5 12 5 14 0 19 -2 13 -5z m-123 -24 c-47 -10 -94 -18 -105 -17 -27 0 134 36
165 36 14 0 -13 -8 -60 -19z m-5797 -6 c-7 -2 -19 -2 -25 0 -7 3 -2 5 12 5 14
0 19 -2 13 -5z m4207 3 c0 -2 -7 -9 -15 -16 -13 -11 -14 -10 -9 4 5 14 24 23
24 12z m-4137 -13 c-7 -2 -19 -2 -25 0 -7 3 -2 5 12 5 14 0 19 -2 13 -5z
m3494 -55 c-2 -13 -4 -3 -4 22 0 25 2 35 4 23 2 -13 2 -33 0 -45z m119 31 c-3
-16 -13 -38 -22 -47 -16 -15 -17 -14 -10 23 9 46 13 55 28 55 6 0 8 -12 4 -31z
m-3533 14 c-7 -2 -19 -2 -25 0 -7 3 -2 5 12 5 14 0 19 -2 13 -5z m3719 -15
c-7 -7 -12 -8 -12 -2 0 14 12 26 19 19 2 -3 -1 -11 -7 -17z m950 -8 c3 -19 0
-30 -7 -30 -7 0 -10 11 -7 30 2 17 5 30 7 30 2 0 5 -13 7 -30z m823 20 c-16
-4 -41 -8 -55 -8 -22 0 -22 1 5 8 17 4 41 8 55 8 22 0 22 -1 -5 -8z m1819 -70
l6 -35 -14 35 c-7 19 -16 46 -20 60 l-7 25 14 -25 c8 -14 17 -41 21 -60z
m-7231 63 c-7 -2 -19 -2 -25 0 -7 3 -2 5 12 5 14 0 19 -2 13 -5z m3734 -5 c26
-35 5 -158 -27 -158 -35 0 -54 78 -26 109 10 10 12 22 6 30 -6 10 -13 4 -29
-25 -17 -32 -20 -35 -21 -16 0 47 73 92 97 60z m3513 2 c0 -5 -5 -10 -11 -10
-5 0 -7 5 -4 10 3 6 8 10 11 10 2 0 4 -4 4 -10z m-7147 -7 c-7 -2 -21 -2 -30
0 -10 3 -4 5 12 5 17 0 24 -2 18 -5z m5147 -14 c-47 -10 -94 -18 -105 -17 -27
0 134 36 165 36 14 0 -13 -8 -60 -19z m2023 1 c-5 -19 -23 -39 -23 -25 0 9 20
45 24 45 2 0 2 -9 -1 -20z m-7070 3 c-7 -2 -21 -2 -30 0 -10 3 -4 5 12 5 17 0
24 -2 18 -5z m4417 -3 c0 -5 -2 -10 -4 -10 -3 0 -8 5 -11 10 -3 6 -1 10 4 10
6 0 11 -4 11 -10z m-4322 -7 c-10 -2 -26 -2 -35 0 -10 3 -2 5 17 5 19 0 27 -2
18 -5z m6869 -15 c-3 -8 -6 -5 -6 6 -1 11 2 17 5 13 3 -3 4 -12 1 -19z m-6749
5 c-10 -2 -26 -2 -35 0 -10 3 -2 5 17 5 19 0 27 -2 18 -5z m6948 -20 c-10 -10
-19 5 -10 18 6 11 8 11 12 0 2 -7 1 -15 -2 -18z m-6828 10 c-10 -2 -26 -2 -35
0 -10 3 -2 5 17 5 19 0 27 -2 18 -5z m4557 -3 c-16 -4 -41 -8 -55 -8 -22 0
-22 1 5 8 17 4 41 8 55 8 22 0 22 -1 -5 -8z m-4432 -7 c-7 -2 -21 -2 -30 0
-10 3 -4 5 12 5 17 0 24 -2 18 -5z m3197 -3 c0 -5 -4 -10 -10 -10 -5 0 -10 5
-10 10 0 6 5 10 10 10 6 0 10 -4 10 -10z m-3083 -6 c-3 -3 -12 -4 -19 -1 -8 3
-5 6 6 6 11 1 17 -2 13 -5z m2550 -61 c-2 -16 -4 -5 -4 22 0 28 2 40 4 28 2
-13 2 -35 0 -50z m1676 60 c-7 -2 -19 -2 -25 0 -7 3 -2 5 12 5 14 0 19 -2 13
-5z m-68 -13 c-16 -4 -41 -8 -55 -8 -22 0 -22 1 5 8 17 4 41 8 55 8 22 0 22
-1 -5 -8z m1484 -41 c7 -23 15 -47 17 -53 8 -21 -43 -39 -123 -42 -43 -2 -107
-5 -142 -6 -35 -2 -74 2 -86 8 -14 7 -56 10 -106 8 -134 -5 -192 -3 -208 6 -9
5 -13 10 -8 10 4 0 128 22 275 49 315 59 310 58 343 60 22 1 28 -5 38 -40z
m-2854 21 c3 -5 2 -10 -4 -10 -5 0 -13 5 -16 10 -3 6 -2 10 4 10 5 0 13 -4 16
-10z m1156 -20 c-73 -16 -174 -43 -223 -60 -50 -17 -93 -29 -95 -27 -16 17
346 114 427 115 14 0 -35 -13 -109 -28z m-568 13 c-7 -2 -19 -2 -25 0 -7 3 -2
5 12 5 14 0 19 -2 13 -5z m-485 -68 c4 -6 -1 -2 -10 8 -10 11 -18 27 -17 36 0
10 4 7 10 -8 5 -14 13 -30 17 -36z m-4114 -119 c30 -52 86 -88 161 -105 345
-76 994 -148 1305 -145 81 1 107 6 176 33 44 17 100 47 123 67 53 46 67 36 18
-14 -28 -28 -59 -45 -129 -69 -51 -18 -115 -35 -143 -38 -96 -12 -686 39
-1005 86 -167 24 -385 68 -425 85 -66 28 -136 130 -134 196 0 33 0 33 14 -9 7
-23 25 -63 39 -87z m3966 101 c0 -7 -37 -49 -82 -95 -78 -78 -81 -82 -69 -108
6 -15 9 -29 7 -32 -9 -9 -27 51 -21 67 4 9 8 28 10 43 3 20 0 26 -11 21 -9 -3
-14 1 -14 12 0 11 5 15 14 12 8 -3 34 9 58 26 93 69 108 76 108 54z m-4242
-35 l37 -39 80 8 c44 4 80 7 81 6 1 -1 4 -18 8 -37 3 -21 2 -30 -3 -22 -11 19
-15 19 -34 3 -10 -7 -17 -10 -17 -6 0 4 -6 2 -14 -4 -9 -8 -16 -8 -20 -2 -4 5
-18 8 -31 5 -21 -4 -25 0 -25 18 0 16 -3 19 -11 11 -9 -9 -16 -8 -28 4 -15 15
-16 15 -19 -1 -4 -16 -5 -16 -19 1 -8 10 -12 13 -9 7 3 -6 -1 -11 -9 -11 -18
0 -18 0 -3 32 9 19 9 28 0 37 -12 12 -16 28 -7 28 3 0 22 -17 43 -38z m4442
34 c0 -11 -19 -15 -25 -6 -3 5 1 10 9 10 9 0 16 -2 16 -4z m2023 -13 c-7 -2
-21 -2 -30 0 -10 3 -4 5 12 5 17 0 24 -2 18 -5z m-120 -20 c-7 -2 -19 -2 -25
0 -7 3 -2 5 12 5 14 0 19 -2 13 -5z m-989 -28 c-9 -14 -18 -25 -21 -25 -5 0 5
18 20 38 17 22 18 13 1 -13z m943 19 c-3 -3 -12 -4 -19 -1 -8 3 -5 6 6 6 11 1
17 -2 13 -5z m-1421 -30 c13 -3 24 -10 24 -14 0 -11 -61 6 -74 21 -8 9 -6 10
7 5 11 -3 30 -9 43 -12z m-586 -8 c0 -7 -16 -35 -37 -62 -34 -46 -35 -47 -6
-21 19 17 33 25 37 18 7 -10 -38 -91 -50 -91 -4 0 1 11 10 25 22 33 20 42 -4
20 -11 -10 -20 -26 -20 -35 0 -16 -76 -100 -91 -100 -3 0 -6 12 -6 26 0 15 -6
30 -12 33 -7 5 4 15 28 26 22 10 48 27 58 38 10 11 12 17 5 13 -22 -13 1 23
42 69 20 21 36 43 36 47 0 4 2 8 5 8 3 0 5 -6 5 -14z m495 3 c10 -14 1 -21
-19 -13 -9 3 -13 10 -10 15 7 12 21 11 29 -2z m-336 -134 c21 -69 20 -77 -4
-25 -14 30 -28 77 -30 105 l-4 50 15 -50 c8 -27 18 -63 23 -80z m91 14 c0 -6
-7 -6 -20 1 -11 6 -20 15 -20 21 0 6 7 6 20 -1 11 -6 20 -15 20 -21z m-2060
-3 c0 -20 -192 -97 -206 -83 -4 3 92 45 166 73 41 15 40 15 40 10z m2505 -85
c-29 -83 -90 -186 -143 -240 l-54 -56 47 54 c53 62 117 173 141 244 9 27 18
46 20 44 2 -2 -2 -23 -11 -46z m-1575 0 c0 -19 -79 -108 -126 -140 -41 -30
-37 -24 28 38 42 39 80 81 83 92 7 20 15 26 15 10z m1224 -162 c8 -40 12 -76
8 -79 -13 -9 -8 -55 6 -53 11 3 16 -12 15 -44 -1 -7 3 -13 8 -13 5 0 9 -5 9
-11 0 -6 -7 -9 -15 -5 -9 3 -15 0 -15 -8 0 -17 -22 -26 -61 -26 -22 0 -29 5
-29 20 0 11 7 20 16 20 8 0 12 -4 9 -10 -3 -5 1 -10 9 -10 23 0 27 15 27 88 0
66 -20 182 -40 235 -6 15 -8 34 -4 43 8 23 37 -51 57 -147z m-120 2 c20 -92
23 -116 12 -126 -10 -11 -17 9 -33 108 -11 67 -24 131 -28 142 -7 18 -6 18 8
5 8 -8 27 -66 41 -129z m-2326 110 l-38 -17 39 -22 c21 -12 41 -19 45 -15 3 3
6 1 6 -5 0 -6 33 -29 73 -52 42 -23 64 -40 52 -40 -12 0 -59 22 -105 49 -47
27 -100 57 -117 67 -56 33 -39 47 62 52 12 0 6 -6 -17 -17z m2562 -45 c0 -3
-4 -8 -10 -11 -5 -3 -10 -1 -10 4 0 6 5 11 10 11 6 0 10 -2 10 -4z m30 -6 c0
-5 -2 -10 -4 -10 -3 0 -8 5 -11 10 -3 6 -1 10 4 10 6 0 11 -4 11 -10z m-320
-190 c0 -11 -3 -20 -8 -20 -4 0 -13 9 -20 20 -11 18 -10 20 8 20 13 0 20 -7
20 -20z m89 -65 c1 -14 -6 -21 -19 -22 -16 -1 -20 4 -20 33 0 21 4 33 10 29 6
-3 10 2 11 12 1 22 17 -22 18 -52z m-298 38 c13 -16 12 -17 -3 -4 -17 13 -22
21 -14 21 2 0 10 -8 17 -17z m229 -43 c13 -9 13 -10 0 -10 -8 0 -22 5 -30 10
-13 9 -13 10 0 10 8 0 22 -5 30 -10z m-84 -58 c-5 -4 -66 26 -66 33 0 3 16 -3
35 -12 19 -9 33 -18 31 -21z m109 28 c4 -7 -3 -8 -22 -4 -38 9 -42 14 -10 14
14 0 29 -5 32 -10z"/>
<path d="M7201 3694 c0 -11 3 -14 6 -6 3 7 2 16 -1 19 -3 4 -6 -2 -5 -13z"/>
<path d="M7212 3650 c0 -14 2 -19 5 -12 2 6 2 18 0 25 -3 6 -5 1 -5 -13z"/>
<path d="M7222 3600 c0 -14 2 -19 5 -12 2 6 2 18 0 25 -3 6 -5 1 -5 -13z"/>
<path d="M7270 3996 c0 -3 9 -10 20 -16 11 -6 20 -8 20 -6 0 3 -9 10 -20 16
-11 6 -20 8 -20 6z"/>
<path d="M7520 3836 c0 -2 8 -10 18 -17 15 -13 16 -12 3 4 -13 16 -21 21 -21
13z"/>
<path d="M7797 3713 c-4 -3 -7 -11 -7 -17 0 -6 5 -4 10 4 8 13 10 12 10 -2 0
-10 5 -18 10 -18 6 0 10 4 10 9 0 13 -26 32 -33 24z"/>
<path d="M7818 3668 c-16 -12 -15 -15 7 -40 20 -24 24 -25 29 -10 3 9 4 5 2
-9 -2 -20 1 -26 13 -24 9 1 17 10 18 21 3 18 2 18 -6 -1 -9 -19 -10 -18 -11 5
0 14 -8 35 -18 48 -15 19 -20 21 -34 10z m27 -17 c3 -5 0 -13 -6 -17 -7 -4 -9
-3 -5 4 3 6 -2 13 -11 15 -16 4 -16 5 -1 6 9 0 19 -3 23 -8z"/>
<path d="M7746 3722 c-3 -5 1 -9 9 -9 8 0 12 4 9 9 -3 4 -7 8 -9 8 -2 0 -6 -4
-9 -8z"/>
<path d="M1838 2753 c7 -3 16 -2 19 1 4 3 -2 6 -13 5 -11 0 -14 -3 -6 -6z"/>
<path d="M1824 2716 c-8 -20 -77 -48 -110 -44 -21 2 -29 8 -27 22 1 18 0 18
-19 -2 -28 -27 -15 -42 36 -42 46 0 146 44 154 68 5 17 -27 15 -34 -2z"/>
<path d="M1654 2636 c11 -9 29 -16 40 -16 17 1 18 2 6 9 -8 5 -26 12 -40 15
-24 7 -24 6 -6 -8z"/>
<path d="M1022 2600 c-26 -11 -44 -50 -30 -67 5 -6 6 -33 2 -61 -9 -71 26
-232 51 -232 8 0 15 -7 15 -15 0 -8 9 -24 20 -35 11 -11 19 -23 18 -27 -4 -11
120 -54 163 -58 20 -1 41 -5 45 -8 5 -2 46 -8 92 -12 136 -12 149 8 159 244 5
126 4 145 -10 153 -9 4 -14 14 -11 21 6 17 -23 42 -66 55 -106 34 -403 62
-448 42z m28 -70 c0 -5 -2 -10 -4 -10 -3 0 -8 5 -11 10 -3 6 -1 10 4 10 6 0
11 -4 11 -10z"/>
<path d="M1873 2583 c-18 -2 -33 -9 -33 -15 0 -6 12 -8 31 -4 17 3 60 6 96 6
40 0 62 4 58 10 -6 10 -85 11 -152 3z"/>
<path d="M1770 2567 c-25 -5 -40 -11 -35 -13 15 -6 101 11 90 17 -5 3 -30 1
-55 -4z"/>
<path d="M1817 2540 c-150 -12 -172 -42 -172 -235 0 -174 24 -230 105 -242
141 -21 398 -17 491 7 105 28 202 161 250 342 26 98 -25 119 -301 125 -96 2
-200 5 -230 7 -30 2 -95 0 -143 -4z m528 -121 c11 -4 14 -8 8 -8 -7 -1 -13 -8
-13 -16 0 -8 -9 -15 -20 -15 -11 0 -20 7 -20 15 0 10 -9 15 -27 14 -25 0 -26
-1 -8 -9 17 -7 15 -9 -12 -9 -26 -1 -31 2 -27 17 5 16 5 16 -9 0 -19 -24 -36
-23 -30 2 5 18 13 20 72 19 36 -1 75 -5 86 -10z"/>
<path d="M2510 2430 c0 -11 -13 -56 -29 -100 -32 -87 -29 -105 3 -22 11 28 22
49 25 47 4 -1 7 19 9 46 1 27 0 49 -3 49 -3 0 -5 -9 -5 -20z"/>
<path d="M4395 2606 c19 -14 45 -11 45 5 0 5 -14 9 -32 9 -30 0 -30 -1 -13
-14z"/>
<path d="M3938 2603 c6 -2 18 -2 25 0 6 3 1 5 -13 5 -14 0 -19 -2 -12 -5z"/>
<path d="M3555 2580 c-204 -22 -486 -63 -464 -68 16 -3 82 5 269 33 58 9 119
13 137 10 17 -3 62 0 100 6 37 6 84 13 103 14 19 2 46 8 60 14 25 10 25 10 -5
9 -16 0 -106 -9 -200 -18z"/>
<path d="M3843 2593 c15 -2 37 -2 50 0 12 2 0 4 -28 4 -27 0 -38 -2 -22 -4z"/>
<path d="M4075 2584 c-11 -2 -64 -6 -118 -9 -68 -5 -97 -11 -94 -18 3 -7 11
-10 18 -8 8 2 61 5 119 6 136 3 170 6 147 12 -9 2 -15 9 -12 14 6 9 -17 10
-60 3z"/>
<path d="M4216 2581 c5 -5 23 -13 39 -16 l30 -7 -29 16 c-31 18 -56 22 -40 7z"/>
<path d="M3713 2551 c-35 -4 -57 -13 -67 -26 -28 -37 -15 -145 22 -187 12 -14
31 -18 83 -18 66 0 69 1 84 30 20 38 19 119 -1 170 -18 44 -17 44 -121 31z
m76 -55 c7 -6 21 -11 30 -11 10 0 17 -9 18 -25 1 -14 0 -18 -3 -9 -3 11 -12
15 -25 12 -10 -3 -19 -1 -19 5 0 6 -9 14 -20 17 -11 3 -20 13 -20 21 0 15 10
12 39 -10z m-29 -88 c0 -6 -7 -5 -15 2 -8 7 -15 17 -15 22 0 6 7 5 15 -2 8 -7
15 -17 15 -22z"/>
<path d="M4300 2545 c10 -12 8 -16 -11 -23 -30 -11 -12 -22 25 -15 16 3 31 14
33 24 3 10 9 17 13 14 5 -3 11 -1 15 4 6 10 -27 7 -44 -4 -5 -3 -12 -1 -16 5
-3 5 -11 10 -17 10 -7 0 -6 -5 2 -15z"/>
<path d="M3535 2535 c-5 -2 -27 -6 -48 -10 -38 -6 -38 -6 -23 -30 9 -13 17
-35 17 -47 1 -15 3 -17 6 -7 3 11 11 15 24 12 21 -6 25 7 7 25 -8 8 -8 12 -1
12 6 0 16 -7 23 -15 7 -9 15 -13 18 -10 3 3 -3 14 -13 25 -19 21 -19 21 7 11
21 -8 28 -7 32 6 9 23 -18 39 -49 28z"/>
<path d="M4170 2516 c0 -17 5 -26 16 -26 10 0 14 7 12 22 -5 32 -28 35 -28 4z"/>
<path d="M4220 2530 c-12 -8 -10 -10 8 -10 13 0 20 4 17 10 -7 12 -6 12 -25 0z"/>
<path d="M3350 2510 c-45 -4 -57 -9 -68 -30 -14 -27 -11 -99 7 -142 10 -26 14
-28 70 -28 65 0 72 5 85 67 8 34 -6 100 -26 123 -10 11 -27 14 -68 10z"/>
<path d="M3596 2505 c-3 -9 -6 -26 -5 -38 1 -14 4 -9 9 13 9 37 7 52 -4 25z"/>
<path d="M4309 2483 c-21 -3 -26 -9 -25 -27 l1 -23 38 25 c51 34 50 35 -14 25z"/>
<path d="M3241 2464 c0 -11 3 -14 6 -6 3 7 2 16 -1 19 -3 4 -6 -2 -5 -13z"/>
<path d="M4168 2430 c-2 -22 -2 -40 -1 -40 1 0 12 18 23 40 20 39 20 40 1 40
-15 0 -20 -9 -23 -40z"/>
<path d="M4055 2396 c-4 -31 -5 -59 -3 -61 3 -3 22 2 44 10 l39 15 -37 -5
c-42 -6 -43 -3 -27 44 8 23 8 36 1 43 -7 7 -12 -7 -17 -46z"/>
<path d="M3619 2352 c5 -10 18 -25 27 -33 11 -9 9 -2 -6 19 -26 35 -36 42 -21
14z"/>
<path d="M3950 2350 c-8 -5 -10 -10 -5 -10 6 0 17 5 25 10 8 5 11 10 5 10 -5
0 -17 -5 -25 -10z"/>
<path d="M4467 2416 c-17 -13 -17 -14 0 -20 10 -4 14 -4 10 0 -4 4 -2 13 4 21
14 17 9 16 -14 -1z"/>
<path d="M4415 2376 c-11 -12 -16 -18 -11 -14 5 4 16 2 23 -4 11 -9 12 -7 7 7
-5 12 -4 16 4 11 6 -3 14 -1 18 5 4 7 3 9 -4 5 -5 -3 -12 -2 -14 2 -1 5 -12 0
-23 -12z"/>
<path d="M4530 2380 c0 -5 5 -10 11 -10 5 0 7 5 4 10 -3 6 -8 10 -11 10 -2 0
-4 -4 -4 -10z"/>
<path d="M4370 2349 c0 -5 -4 -7 -10 -4 -6 3 -7 -1 -4 -10 4 -10 2 -15 -7 -13
-8 2 -13 -3 -11 -9 1 -7 -3 -13 -9 -13 -5 0 -7 -4 -4 -10 3 -5 2 -10 -4 -10
-18 0 -23 20 -10 38 8 9 1 6 -14 -7 -15 -14 -27 -21 -27 -17 0 5 -7 3 -15 -4
-8 -7 -13 -16 -10 -20 3 -5 0 -12 -6 -16 -7 -4 -9 -3 -5 4 3 6 2 13 -3 17 -6
3 -8 -4 -6 -16 3 -14 0 -19 -9 -16 -7 3 -13 -1 -13 -9 0 -12 4 -12 23 1 28 18
38 19 28 3 -4 -6 -3 -8 3 -5 6 4 9 18 8 32 -2 14 1 23 6 19 5 -3 7 -9 4 -14
-3 -5 -1 -11 4 -15 6 -3 8 4 6 15 -3 14 0 20 8 17 7 -3 11 -10 9 -16 -4 -21
38 8 57 40 10 16 21 26 25 22 4 -4 4 0 0 10 -7 19 -14 22 -14 6z"/>
<path d="M4169 2278 c-5 -18 -6 -38 -1 -34 7 8 12 36 6 36 -2 0 -4 -1 -5 -2z"/>
<path d="M4086 2228 c3 -5 10 -6 15 -3 13 9 11 12 -6 12 -8 0 -12 -4 -9 -9z"/>
<path d="M4325 2233 c3 -3 0 -12 -7 -20 -6 -7 -8 -16 -4 -20 3 -3 6 -1 6 6 0
7 4 10 9 7 11 -7 9 21 -2 29 -4 3 -5 2 -2 -2z"/>
<path d="M4370 2225 c0 -7 30 -13 34 -7 3 4 -4 9 -15 9 -10 1 -19 0 -19 -2z"/>
<path d="M4196 2198 c3 -5 10 -6 15 -3 13 9 11 12 -6 12 -8 0 -12 -4 -9 -9z"/>
<path d="M4173 2185 c0 -8 4 -12 9 -9 5 3 6 10 3 15 -9 13 -12 11 -12 -6z"/>
<path d="M4286 2183 c-6 -14 -5 -15 5 -6 7 7 10 15 7 18 -3 3 -9 -2 -12 -12z"/>
<path d="M4242 2165 c4 -4 3 -14 -3 -21 -7 -9 -6 -14 3 -20 7 -4 10 -4 6 1 -4
4 -3 14 3 21 7 9 6 14 -3 20 -7 4 -10 4 -6 -1z"/>
<path d="M4185 2100 c-3 -5 3 -7 12 -6 10 2 22 -2 26 -8 6 -7 7 -6 5 3 -5 16
-35 24 -43 11z"/>
<path d="M4260 2084 c0 -8 5 -12 10 -9 6 4 8 11 5 16 -9 14 -15 11 -15 -7z"/>
<path d="M4035 1990 c3 -5 8 -10 11 -10 2 0 4 5 4 10 0 6 -5 10 -11 10 -5 0
-7 -4 -4 -10z"/>
<path d="M2680 2366 c0 -2 7 -7 16 -10 8 -3 12 -2 9 4 -6 10 -25 14 -25 6z"/>
<path d="M5360 2260 c0 -5 5 -10 11 -10 5 0 7 5 4 10 -3 6 -8 10 -11 10 -2 0
-4 -4 -4 -10z"/>
<path d="M4764 2028 c-4 -7 -14 -24 -22 -38 -14 -24 -13 -24 3 -5 20 24 37 55
31 55 -3 0 -8 -6 -12 -12z"/>
<path d="M1079 1808 c-5 -133 -4 -151 6 -155 6 -2 10 22 10 58 0 33 3 63 8 66
4 2 7 -7 7 -21 0 -14 5 -28 10 -31 6 -4 10 5 10 19 0 14 5 26 11 26 7 0 10
-22 7 -62 -2 -43 1 -63 10 -65 9 -4 12 23 12 111 0 64 -4 116 -9 116 -4 0 -14
-20 -21 -45 -12 -43 -30 -53 -30 -17 -1 9 -7 31 -15 47 -13 29 -13 27 -16 -47z"/>
<path d="M1300 1735 c0 -70 4 -115 10 -115 6 0 10 29 10 66 0 41 4 63 10 59 6
-3 10 -15 10 -26 0 -10 5 -19 10 -19 6 0 10 9 10 19 0 11 5 23 11 26 7 5 10
-15 8 -61 -2 -45 1 -69 9 -72 9 -3 12 28 12 112 0 121 -10 146 -31 76 -7 -22
-15 -40 -19 -40 -4 0 -13 20 -20 45 -7 25 -17 45 -21 45 -5 0 -9 -52 -9 -115z"/>
<path d="M1420 1725 c0 -70 4 -115 10 -115 6 0 10 28 10 65 0 37 4 65 10 65 6
0 10 -10 10 -23 0 -38 14 -41 26 -5 12 31 13 29 13 -39 1 -58 4 -73 16 -73 12
0 15 20 15 116 0 125 -11 145 -38 65 -16 -48 -23 -45 -41 17 -20 72 -31 48
-31 -73z"/>
<path d="M1598 1795 c-6 -30 11 -45 24 -21 11 20 37 21 44 2 7 -17 -8 -48 -47
-97 -16 -20 -29 -49 -29 -63 0 -25 2 -26 56 -26 61 0 71 17 18 35 -16 5 -31
10 -33 11 -1 2 12 21 30 44 26 33 33 50 33 82 -2 45 -15 58 -60 58 -26 0 -33
-5 -36 -25z"/>
<path d="M1730 1803 c0 -8 12 -13 28 -13 42 0 45 -9 17 -46 -31 -40 -31 -52
-2 -56 31 -4 32 -62 1 -66 -15 -2 -23 3 -27 17 -8 31 -27 25 -27 -7 0 -35 16
-52 51 -52 33 0 45 14 54 61 6 30 3 40 -16 58 l-23 21 23 24 c35 38 25 60 -32
66 -35 4 -47 3 -47 -7z"/>
<path d="M1850 1750 l0 -62 30 5 c23 5 32 2 41 -14 15 -29 3 -69 -20 -69 -10
0 -21 7 -25 15 -8 23 -26 18 -26 -8 0 -30 18 -47 50 -47 39 0 60 29 60 83 0
38 -4 49 -24 62 -13 8 -31 13 -40 9 -12 -5 -16 0 -16 20 0 24 4 26 40 26 29 0
40 4 40 15 0 10 -10 15 -32 15 -18 0 -43 3 -55 6 -22 6 -23 4 -23 -56z"/>
<path d="M1990 1764 c-15 -39 -12 -69 10 -95 17 -21 21 -22 30 -9 7 11 5 18
-6 27 -24 18 -14 67 14 71 20 3 22 -1 22 -40 0 -31 -8 -55 -30 -88 -35 -52
-38 -70 -11 -70 24 0 81 109 81 154 0 48 -25 76 -66 76 -28 0 -36 -5 -44 -26z"/>
<path d="M1210 1705 c0 -9 6 -12 17 -8 11 4 14 3 9 -5 -4 -7 -1 -12 8 -12 8 0
18 5 22 12 4 6 3 8 -3 5 -6 -4 -13 0 -17 8 -7 19 -36 20 -36 0z"/>
<path d="M1011 1704 c0 -11 3 -14 6 -6 3 7 2 16 -1 19 -3 4 -6 -2 -5 -13z"/>
<path d="M4982 1553 c2 -9 8 -18 15 -20 7 -3 9 3 6 16 -6 25 -26 28 -21 4z"/>
<path d="M4955 1508 c-10 -25 -3 -39 14 -29 10 6 11 13 3 27 -10 18 -11 18
-17 2z"/>
<path d="M4987 1473 c-3 -5 -1 -17 4 -28 4 -11 8 -15 8 -8 1 6 4 18 7 27 6 16
-11 23 -19 9z"/>
<path d="M4696 1322 c-30 -22 -44 -38 -35 -41 7 -2 15 1 17 8 2 6 9 11 15 12
7 0 22 13 35 30 29 36 28 36 -32 -9z"/>
<path d="M4745 1151 c-3 -5 -2 -12 3 -15 5 -3 9 1 9 9 0 17 -3 19 -12 6z"/>
<path d="M4714 1132 c-6 -4 -8 -15 -5 -25 6 -16 9 -17 18 -5 14 16 3 40 -13
30z"/>
<path d="M5545 4260 c-4 -6 9 -10 32 -11 21 0 47 -4 58 -9 17 -7 14 -9 -15
-10 -34 -1 -85 -17 -65 -20 6 -1 17 -3 25 -5 8 -1 56 -8 105 -14 50 -7 92 -15
95 -19 3 -4 4 -6 2 -5 -2 0 -27 -7 -56 -18 -30 -10 -66 -21 -82 -24 -53 -9
-68 -14 -204 -61 -74 -25 -139 -47 -145 -49 -39 -8 -71 -19 -80 -25 -5 -4 -39
-18 -75 -33 -36 -14 -87 -36 -115 -48 -27 -13 -53 -22 -57 -21 -5 1 -8 -3 -8
-9 0 -5 -4 -7 -10 -4 -5 3 -10 1 -10 -6 0 -7 -3 -9 -7 -6 -3 4 -15 -1 -26 -10
-11 -10 -17 -12 -13 -5 5 8 -10 2 -32 -12 -22 -14 -42 -22 -46 -19 -11 12 -18
-28 -7 -41 9 -11 9 -16 0 -22 -7 -4 -10 -3 -6 2 6 11 -13 38 -30 41 -7 1 -9
-6 -6 -20 5 -22 5 -22 -10 -2 -15 20 -16 20 -26 -5 -8 -21 -10 -22 -10 -5 -1
16 -4 15 -16 -9 -9 -16 -13 -36 -10 -43 2 -8 0 -11 -5 -8 -6 3 -10 20 -10 37
0 27 -2 29 -17 17 -14 -12 -16 -12 -9 1 4 8 0 6 -8 -4 -11 -13 -16 -15 -16 -6
0 17 -56 -44 -76 -82 -8 -16 -19 -28 -25 -28 -6 0 -7 -4 -4 -10 3 -5 1 -10 -4
-10 -6 0 -11 5 -11 12 0 6 -3 8 -7 4 -5 -4 1 -14 11 -22 17 -12 18 -14 3 -14
-9 0 -16 -3 -14 -8 1 -4 -2 -8 -7 -9 -5 -1 -13 -7 -17 -15 -7 -11 -9 -11 -9 1
0 11 -3 11 -17 0 -15 -13 -15 -12 0 18 10 18 17 39 17 48 0 10 5 13 12 9 6 -4
8 -3 5 3 -3 5 0 21 8 36 l14 27 -30 -22 c-16 -12 -29 -30 -29 -40 0 -12 -4
-16 -12 -12 -8 5 -9 2 -5 -10 4 -9 3 -15 -2 -12 -11 7 -23 -22 -15 -35 3 -5 0
-8 -7 -7 -6 2 -13 -2 -16 -8 -2 -7 32 -13 104 -18 102 -7 133 -13 106 -23 -7
-3 -13 -17 -13 -32 0 -15 6 -33 13 -40 10 -11 -17 -12 -158 -7 -93 3 -186 9
-205 12 -41 7 -148 7 -395 -1 -215 -7 -263 -25 -66 -25 125 0 1156 -43 1306
-55 39 -2 130 -5 203 -6 171 -1 361 -14 372 -25 11 -11 -12 -79 -36 -105 -10
-11 -38 -26 -63 -34 l-46 -15 40 6 c21 3 52 15 67 26 29 20 58 75 58 109 0 16
8 19 50 19 39 0 50 3 50 16 0 39 301 725 309 703 2 -8 11 -19 19 -25 12 -9 12
-13 2 -19 -9 -5 -11 -4 -6 3 4 7 2 12 -4 12 -6 0 -9 -14 -7 -35 2 -19 -1 -36
-7 -39 -7 -3 -6 -5 2 -5 7 -1 22 18 33 42 11 23 30 60 41 81 20 38 20 39 3 53
-29 20 -45 16 -57 -18 -14 -40 -20 -32 -8 11 12 42 2 59 -46 76 -47 16 -57 17
-49 4 11 -18 -31 -10 -55 10 -13 11 -32 20 -44 20 -12 0 -86 7 -166 15 -175
17 -187 18 -195 5z m429 -139 c23 -25 15 -50 -69 -227 -67 -141 -115 -221
-115 -191 0 12 -4 16 -12 10 -12 -7 -17 -9 -36 -12 -4 0 -9 -15 -10 -32 -2
-28 0 -31 22 -27 23 5 24 3 15 -21 -32 -83 -50 -107 -92 -119 -76 -21 -117
-22 -117 -3 1 21 25 53 34 44 4 -4 4 0 0 10 -6 16 -26 23 -49 17 -5 -2 -18 -2
-28 -2 -15 1 -13 -3 8 -20 24 -18 26 -26 23 -82 -3 -56 -5 -61 -27 -64 -17 -3
-30 4 -42 20 l-18 23 -19 -21 c-19 -20 -28 -21 -179 -17 -87 2 -223 8 -303 13
-80 6 -169 11 -197 12 -62 2 -72 15 -13 15 47 0 55 6 65 50 l6 32 -38 -5 c-21
-3 -59 -9 -85 -13 -27 -5 -48 -6 -48 -2 1 21 23 30 85 34 l70 3 -72 2 c-43 1
-73 6 -73 12 0 6 9 29 21 51 l20 41 25 -23 c14 -13 42 -25 67 -28 35 -5 43
-10 46 -31 l4 -25 6 25 c7 25 8 25 129 26 85 1 122 -2 122 -10 0 -8 3 -8 8 0
4 6 15 13 25 17 13 5 17 13 12 29 -4 16 -4 19 3 9 7 -10 16 -2 38 34 l28 48
-23 89 c-13 49 -21 92 -18 95 3 2 32 -43 65 -101 53 -95 61 -105 73 -89 12 15
12 16 -1 9 -8 -4 -4 2 10 13 14 12 33 19 42 17 10 -2 21 1 25 6 3 7 1 8 -5 4
-7 -4 -12 -2 -12 4 0 8 9 10 24 6 14 -3 28 -2 31 4 4 6 -1 7 -12 4 -17 -5 -17
-5 -1 9 10 8 15 17 11 20 -3 4 -1 7 6 7 8 0 11 6 7 16 -5 14 -4 15 9 4 13 -11
14 -10 9 6 -4 10 -4 16 1 12 4 -4 14 0 22 10 8 9 11 11 8 4 -4 -8 9 -3 28 10
21 13 32 27 27 32 -5 5 -19 2 -35 -8 -14 -9 -24 -13 -24 -9 4 15 -13 43 -22
37 -5 -3 -6 3 -2 13 6 16 4 16 -17 -2 -13 -11 -20 -14 -16 -7 4 7 1 12 -9 12
-9 0 -13 -4 -10 -10 3 -6 -1 -7 -9 -4 -25 10 -18 21 12 20 15 -1 35 5 45 13 9
8 17 11 17 7 0 -4 10 -2 21 5 17 8 20 8 14 -1 -4 -7 4 -4 19 5 14 10 35 15 45
12 14 -3 18 -1 14 9 -3 8 -4 14 -2 14 2 1 49 7 104 16 55 8 110 15 123 16 12
1 22 5 22 9 0 11 39 18 46 8 3 -5 11 -9 17 -9 7 0 6 4 -3 10 -10 7 -11 10 -2
11 22 3 27 4 41 13 10 6 12 5 7 -2 -4 -7 -5 -12 -2 -12 3 0 10 10 17 21 9 17
8 23 -2 30 -8 5 -9 9 -3 9 6 0 19 -9 28 -19z m-594 -186 c8 -11 10 -17 6 -13
-5 4 -14 4 -20 -1 -10 -8 -123 -51 -135 -51 -3 0 4 7 15 16 17 14 16 14 -8 0
-16 -9 -28 -14 -28 -12 0 2 -3 12 -7 22 -4 12 -3 15 5 10 7 -4 12 -2 12 3 0 6
3 10 8 10 4 -1 10 0 15 1 4 1 12 4 17 5 6 1 11 3 13 5 4 3 41 11 64 13 13 1
23 6 23 11 0 5 1 7 3 5 1 -2 9 -13 17 -24z m-233 -69 c-13 -15 -32 -15 -44 -1
-4 4 -3 5 3 2 7 -4 17 0 24 8 7 8 16 12 21 9 5 -3 3 -11 -4 -18z m-315 -70 c6
4 8 2 4 -4 -6 -10 10 -27 27 -27 4 0 6 -4 5 -10 -2 -5 -10 -10 -18 -9 -9 1
-17 -8 -17 -19 -1 -11 -7 -25 -12 -30 -13 -13 -4 42 10 59 6 7 4 16 -6 24 -8
7 -15 18 -14 24 0 7 2 6 6 -2 2 -6 10 -9 15 -6z m98 -21 c0 -5 5 -3 10 5 8 12
10 12 10 -5 0 -15 2 -17 9 -6 5 7 25 14 45 16 29 1 39 -3 47 -19 9 -19 9 -19
-4 -4 -8 10 -17 15 -21 11 -3 -3 1 -15 11 -25 9 -10 13 -18 10 -18 -4 0 -9 0
-12 0 -3 0 -4 2 -2 3 4 7 -25 37 -35 37 -6 0 -6 -6 1 -14 9 -11 9 -16 0 -22
-7 -4 -9 -3 -6 3 4 6 0 16 -8 23 -12 10 -16 8 -24 -11 -7 -18 -10 -19 -10 -6
-1 9 -5 17 -10 17 -5 0 -7 -10 -5 -22 4 -21 4 -21 -5 -3 -4 11 -7 23 -4 28 2
4 -1 7 -8 7 -6 0 -9 -8 -6 -20 3 -11 1 -20 -4 -20 -5 0 -9 5 -9 11 0 5 -5 7
-10 4 -6 -4 -8 -10 -5 -15 3 -5 0 -12 -7 -17 -21 -13 -36 -12 -34 3 3 21 16
29 16 10 0 -10 5 -14 11 -11 6 4 8 10 5 13 -3 3 2 14 11 25 10 11 13 17 6 14
-6 -4 -14 -3 -18 3 -4 6 -11 7 -17 4 -6 -4 -9 -3 -5 2 7 12 77 11 77 -1z m380
-25 c-20 -13 -33 -13 -25 0 3 6 14 10 23 10 15 0 15 -2 2 -10z m-391 -33 c-2
-1 -13 -9 -24 -17 -19 -14 -19 -14 -6 3 7 9 18 17 24 17 6 0 8 -1 6 -3z m111
-17 c6 -11 8 -20 6 -20 -3 0 -10 9 -16 20 -6 11 -8 20 -6 20 3 0 10 -9 16 -20z
m27 5 c0 -8 -4 -12 -9 -9 -5 3 -6 10 -3 15 9 13 12 11 12 -6z m-64 -58 c8 5 8
2 0 -9 -7 -8 -9 -19 -5 -24 4 -4 0 -3 -10 4 -13 10 -17 10 -21 0 -3 -7 -4 -3
-4 9 1 12 5 19 9 17 4 -3 8 1 9 8 0 10 2 10 6 0 2 -6 10 -9 16 -5z m-316 -203
c-3 -3 -12 -4 -19 -1 -8 3 -5 6 6 6 11 1 17 -2 13 -5z"/>
<path d="M5475 3942 c9 -18 20 -30 25 -27 6 4 10 8 10 11 0 3 -5 2 -12 -2 -8
-5 -9 -2 -4 12 4 10 4 15 0 11 -4 -4 -13 1 -21 11 -10 12 -9 7 2 -16z"/>
<path d="M5638 3911 c9 -17 23 -33 30 -36 8 -3 4 8 -8 25 -29 41 -43 48 -22
11z"/>
<path d="M5651 3646 c-24 -14 -24 -14 -3 -20 12 -4 26 -5 31 -2 5 4 12 0 14
-6 3 -7 6 1 6 17 0 21 -2 26 -8 16 -5 -8 -10 -9 -12 -3 -3 7 -12 6 -28 -2z"/>
<path d="M4917 3533 c-4 -3 -20 -6 -37 -5 -23 0 -30 -4 -30 -19 0 -10 2 -19 5
-19 10 0 85 40 85 45 0 7 -16 6 -23 -2z"/>
<path d="M5367 3447 c-3 -8 1 -14 8 -14 7 0 11 6 8 14 -3 7 -6 13 -8 13 -2 0
-5 -6 -8 -13z"/>
<path d="M3849 4211 c-158 -64 -374 -205 -638 -415 -123 -98 -134 -105 -147
-89 -9 13 -16 15 -21 7 -10 -15 -84 -54 -101 -54 -7 0 -10 -4 -7 -10 8 -13
-18 -13 -30 -1 -6 6 -10 -7 -10 -35 0 -33 -6 -49 -18 -55 -19 -11 -24 -44 -4
-34 6 4 -5 -9 -25 -29 -37 -35 -37 -35 -73 -21 -19 9 -35 11 -35 6 0 -5 13
-12 29 -16 21 -4 28 -11 24 -21 -3 -9 1 -14 13 -12 56 4 104 -3 104 -16 0 -8
-8 -16 -17 -18 -10 -2 28 -4 85 -5 56 -1 107 -5 111 -8 13 -7 278 -45 309 -44
15 1 -25 9 -88 18 -113 17 -286 55 -325 71 -11 5 119 10 305 11 201 1 300 5
260 9 -36 4 -134 8 -217 9 -84 0 -153 4 -153 9 0 4 -23 5 -50 4 -28 -2 -56 1
-63 6 -8 7 -18 7 -27 2 -8 -6 -51 -10 -94 -10 l-80 0 44 38 c297 255 672 537
820 615 41 22 82 49 91 60 12 14 29 20 60 20 24 0 35 3 24 5 -16 4 -12 8 20
23 75 33 21 19 -76 -20z m-789 -534 c0 -2 -12 -14 -27 -28 l-28 -24 24 28 c23
25 31 32 31 24z m-60 -50 c0 -2 -12 -14 -27 -28 l-28 -24 24 28 c23 25 31 32
31 24z m-70 -61 c0 -2 -8 -10 -17 -17 -16 -13 -17 -12 -4 4 13 16 21 21 21 13z"/>
<path d="M4971 4238 c-30 -5 -61 -14 -70 -21 -10 -8 -13 -9 -8 0 4 6 2 15 -4
19 -8 4 -9 3 -5 -4 9 -15 -7 -15 -21 -1 -9 9 -11 7 -7 -7 3 -12 -3 -27 -15
-38 -19 -17 -19 -17 -16 1 2 10 4 23 4 28 1 6 6 3 11 -5 5 -8 10 -10 10 -4 0
18 -27 37 -35 24 -3 -6 -11 -8 -16 -5 -5 4 -12 -1 -15 -10 -5 -13 -8 -14 -15
-3 -6 10 -11 10 -21 0 -9 -9 -9 -12 3 -13 7 0 22 -2 31 -4 10 -2 15 2 12 9 -3
7 2 13 11 13 11 0 13 -6 9 -20 -3 -11 -7 -26 -8 -33 -1 -7 -6 -17 -11 -21 -4
-4 -6 -3 -3 2 3 6 0 15 -7 22 -10 9 -15 6 -24 -13 -6 -13 -19 -24 -28 -24 -15
0 -16 -2 -3 -10 8 -5 11 -10 5 -10 -10 -1 -87 -7 -150 -12 -22 -2 -30 -8 -29
-21 2 -13 -1 -15 -10 -7 -7 5 -17 6 -22 2 -4 -4 -2 1 5 11 21 26 -2 20 -29 -8
-35 -38 -16 -49 80 -47 78 1 81 2 155 52 41 28 90 63 107 79 68 59 104 71 212
71 55 0 97 2 95 4 -9 9 -126 11 -178 4z m-384 -154 c-3 -3 -12 -4 -19 -1 -8 3
-5 6 6 6 11 1 17 -2 13 -5z"/>
<path d="M5238 4223 c7 -3 16 -2 19 1 4 3 -2 6 -13 5 -11 0 -14 -3 -6 -6z"/>
<path d="M5278 4223 c7 -3 16 -2 19 1 4 3 -2 6 -13 5 -11 0 -14 -3 -6 -6z"/>
<path d="M6220 4165 c-7 -9 -11 -17 -9 -20 3 -2 10 5 17 15 14 24 10 26 -8 5z"/>
<path d="M4407 3663 c-65 -106 -69 -113 -55 -113 7 0 30 34 51 75 40 81 42 98
4 38z"/>
<path d="M4479 3624 c0 -5 -2 -16 -4 -25 -1 -9 3 -16 10 -16 8 0 12 9 9 20 -4
22 -14 35 -15 21z"/>
<path d="M2800 3500 c0 -5 10 -10 23 -10 18 0 19 2 7 10 -19 13 -30 13 -30 0z"/>
<path d="M5945 3499 c-4 -6 -5 -12 -2 -15 2 -3 7 2 10 11 7 17 1 20 -8 4z"/>
<path d="M2755 3450 c3 -5 11 -10 16 -10 6 0 7 5 4 10 -3 6 -11 10 -16 10 -6
0 -7 -4 -4 -10z"/>
<path d="M8620 3261 c-7 -15 -7 -21 0 -21 12 0 25 28 17 36 -3 3 -10 -4 -17
-15z"/>
<path d="M8630 3191 c0 -6 5 -13 10 -16 6 -3 10 1 10 9 0 9 -4 16 -10 16 -5 0
-10 -4 -10 -9z"/>
<path d="M5473 3183 c9 -2 23 -2 30 0 6 3 -1 5 -18 5 -16 0 -22 -2 -12 -5z"/>
<path d="M5403 3173 c9 -2 23 -2 30 0 6 3 -1 5 -18 5 -16 0 -22 -2 -12 -5z"/>
<path d="M6285 3170 c-3 -5 -1 -18 4 -27 9 -16 10 -14 11 10 0 28 -5 34 -15
17z"/>
<path d="M5338 3163 c6 -2 18 -2 25 0 6 3 1 5 -13 5 -14 0 -19 -2 -12 -5z"/>
<path d="M5278 3153 c6 -2 18 -2 25 0 6 3 1 5 -13 5 -14 0 -19 -2 -12 -5z"/>
<path d="M5098 3123 c7 -3 16 -2 19 1 4 3 -2 6 -13 5 -11 0 -14 -3 -6 -6z"/>
<path d="M6120 3100 c0 -5 5 -10 11 -10 5 0 7 5 4 10 -3 6 -8 10 -11 10 -2 0
-4 -4 -4 -10z"/>
<path d="M4678 3033 c7 -3 16 -2 19 1 4 3 -2 6 -13 5 -11 0 -14 -3 -6 -6z"/>
<path d="M2066 2922 c-4 -7 -3 -22 4 -52 0 -3 10 6 20 19 11 13 20 17 20 10 0
-7 3 -10 6 -6 14 14 -8 27 -28 16 -18 -10 -20 -9 -15 5 7 17 2 22 -7 8z"/>
<path d="M1919 2913 c-1 -5 -1 -11 0 -15 0 -5 -3 -8 -7 -8 -5 0 -9 -7 -9 -16
0 -14 2 -14 14 2 10 13 13 14 13 3 0 -12 2 -12 10 1 9 14 14 7 11 -13 -1 -4 7
-4 16 1 10 5 26 8 35 7 10 -2 20 1 24 6 3 5 9 7 13 5 4 -3 7 5 8 17 0 12 -1
16 -4 9 -3 -6 -9 -10 -14 -6 -5 3 -8 1 -7 -4 2 -6 -1 -9 -7 -8 -5 0 -9 5 -7 9
1 5 -3 5 -10 1 -19 -12 -73 -8 -70 5 1 6 0 11 -3 11 -3 0 -6 -3 -6 -7z"/>
<path d="M2165 2909 c-4 -6 -5 -12 -2 -15 2 -3 7 2 10 11 7 17 1 20 -8 4z"/>
<path d="M1877 2894 c5 -14 -14 -14 -36 0 -8 6 -7 -1 4 -18 20 -30 27 -34 18
-8 -6 15 -5 16 13 2 10 -8 16 -11 12 -6 -4 5 -3 16 2 26 6 12 5 17 -5 17 -7 0
-11 -6 -8 -13z"/>
<path d="M1748 2888 c-10 -7 -9 -9 2 -5 8 2 20 -3 26 -11 15 -21 44 -25 37 -5
-4 11 -8 11 -13 3 -5 -9 -9 -9 -14 -1 -4 6 -5 15 -2 19 7 12 -20 11 -36 0z"/>
<path d="M4551 2864 c0 -11 3 -14 6 -6 3 7 2 16 -1 19 -3 4 -6 -2 -5 -13z"/>
<path d="M4570 2869 c0 -8 7 -24 15 -35 13 -18 14 -18 9 6 -4 22 -3 22 10 -5
16 -31 16 -30 16 23 0 4 -8 7 -17 7 -10 -1 -21 4 -25 10 -5 6 -8 4 -8 -6z"/>
<path d="M1726 2861 c-3 -4 6 -7 19 -7 14 0 22 2 19 5 -8 8 -34 10 -38 2z"/>
<path d="M4280 2839 c0 -5 -4 -8 -9 -5 -5 4 -11 1 -13 -5 -2 -6 -16 -12 -31
-12 -30 -2 -35 -12 -12 -20 8 -4 17 -2 20 4 4 5 9 8 13 5 4 -2 18 7 32 20 13
13 19 24 12 24 -6 0 -12 -5 -12 -11z"/>
<path d="M4639 2848 c-6 -20 -6 -39 0 -42 4 -3 7 6 7 20 0 20 -4 32 -7 22z"/>
<path d="M4689 2819 c-6 -31 -5 -37 7 -35 22 3 25 12 9 26 -8 7 -15 11 -16 9z"/>
<path d="M2318 2803 c7 -3 16 -2 19 1 4 3 -2 6 -13 5 -11 0 -14 -3 -6 -6z"/>
<path d="M3730 2799 c0 -5 19 -9 42 -9 23 0 39 2 37 5 -9 8 -79 12 -79 4z"/>
<path d="M4135 2779 c-11 -16 -1 -19 13 -3 7 8 8 14 3 14 -5 0 -13 -5 -16 -11z"/>
<path d="M4724 2778 c-4 -5 -3 -12 0 -15 3 -4 6 -1 6 6 0 7 4 10 9 6 5 -3 12
-2 15 3 3 5 -2 9 -10 9 -8 0 -17 -4 -20 -9z"/>
<path d="M5878 2783 c-16 -2 -28 -9 -28 -15 0 -12 59 -3 74 12 10 10 5 11 -46
3z"/>
<path d="M675 2748 c-22 -62 -33 -182 -17 -192 4 -2 14 5 21 16 11 18 11 20
-4 14 -16 -6 -17 -2 -11 31 3 21 6 47 6 58 0 17 2 17 10 5 7 -11 10 -2 10 33
0 46 -6 60 -15 35z"/>
<path d="M700 2731 c0 -6 4 -13 10 -16 6 -3 7 1 4 9 -7 18 -14 21 -14 7z"/>
<path d="M733 2625 c8 -79 23 -100 80 -108 32 -5 38 -3 33 9 -3 9 -6 20 -6 25
0 5 -8 9 -19 9 -19 0 -31 25 -31 67 0 13 -13 31 -32 44 l-31 23 6 -69z m24 3
c-3 -7 -5 -2 -5 12 0 14 2 19 5 13 2 -7 2 -19 0 -25z m23 -38 c0 -5 -5 -10
-11 -10 -5 0 -7 5 -4 10 3 6 8 10 11 10 2 0 4 -4 4 -10z m47 -57 c-8 -7 -35 9
-41 23 -4 11 0 11 20 -2 13 -9 23 -18 21 -21z"/>
<path d="M800 2616 c0 -33 14 -40 34 -17 17 18 17 20 -3 30 -28 15 -31 14 -31
-13z"/>
<path d="M710 2563 c0 -6 9 -21 21 -34 l20 -24 -17 30 c-24 39 -24 40 -24 28z"/>
<path d="M5255 2550 c-19 -8 -19 -9 3 -9 12 -1 22 4 22 9 0 6 -1 10 -2 9 -2 0
-12 -4 -23 -9z"/>
<path d="M4960 2492 c0 -5 -15 -8 -34 -7 -42 2 -66 -9 -40 -19 10 -4 21 -1 26
6 6 10 8 10 8 -2 0 -12 2 -12 9 -1 6 9 11 10 15 2 4 -6 12 -11 17 -11 6 0 7 5
3 12 -5 8 -2 9 11 4 15 -5 16 -4 5 9 -14 17 -20 19 -20 7z"/>
<path d="M549 2383 c-13 -16 -12 -17 4 -4 9 7 17 15 17 17 0 8 -8 3 -21 -13z"/>
<path d="M525 2349 c-4 -6 -5 -12 -2 -15 2 -3 7 2 10 11 7 17 1 20 -8 4z"/>
<path d="M8802 2285 c0 -16 2 -22 5 -12 2 9 2 23 0 30 -3 6 -5 -1 -5 -18z"/>
<path d="M599 2280 c-3 -20 -4 -25 -12 -37 -4 -6 -3 -15 3 -18 6 -4 10 -3 9 2
-1 4 -1 10 1 13 5 15 9 50 5 50 -3 0 -6 -4 -6 -10z"/>
<path d="M610 2173 c0 -6 8 -17 18 -24 16 -13 16 -13 2 6 -8 11 -16 22 -17 24
-2 2 -3 0 -3 -6z"/>
</g>
</svg>
